<?xml version="1.0" encoding="UTF-8"?>
<svg width="130px" height="111px" viewBox="0 0 130 111" version="1.1" xmlns="http://www.w3.org/2000/svg" xmlns:xlink="http://www.w3.org/1999/xlink">
    <!-- Generator: sketchtool 42 (36781) - http://www.bohemiancoding.com/sketch -->
    <title>5D3FFD0B-3A53-44FD-8FC9-68042C604423</title>
    <desc>Created with sketchtool.</desc>
    <defs>
        <polygon id="path-1" points="0.000192680696 111 129.312061 111 129.312061 0.0721175439 0.000192680696 0.0721175439 0.000192680696 111"></polygon>
    </defs>
    <g id="Symbols" stroke="none" stroke-width="1" fill="none" fill-rule="evenodd">
        <g id="Footer" transform="translate(-665.000000, -37.000000)">
            <g id="Page-1" transform="translate(665.000000, 37.000000)">
                <g id="Group-2">
                    <polygon id="Fill-24" points="8 53.4210405 22.3893936 53.4210405 22.3893936 108 31.7017916 108 45.8257548 108 104.916573 108 104.916573 52.7770295 121 52.7770295 64.760007 4"></polygon>
                    <g id="Group-84">
                        <g id="Group-28" opacity="0.879359149">
                            <mask id="mask-2" fill="white">
                                <use xlink:href="#path-1"></use>
                            </mask>
                            <g id="Clip-27"></g>
                            <polygon id="Fill-26" fill="#FFFFFF" mask="url(#mask-2)" points="108.204533 111.000065 45.8472797 111.000065 45.8472797 105.18717 102.453014 105.18717 102.453014 49.1990298 113.723551 49.1990298 64.9104655 7.72267895 15.5424599 49.844907 25.1315358 49.844907 25.1315358 105.18717 31.6293712 105.18717 31.6293712 111.000065 19.3800171 111.000065 19.3800171 55.6571526 0.000192680696 55.6571526 64.9027582 0.0721175439 129.312061 55.0119246 108.204533 55.0119246"></polygon>
                        </g>
                        <path d="M65.3252428,65.4942842 C66.3027762,68.9456702 64.6559985,89.971407 76.9021412,104.028811 L76.7884596,104.046986 C77.5071586,104.790881 78.1590617,106.134565 77.6002876,107.047232 C77.0408713,107.959898 76.0048915,108.096214 75.2868347,107.351021 C75.277843,107.341933 75.2630708,107.325705 75.254079,107.316618 C72.8641961,104.711039 70.9829903,101.527091 69.5076984,98.1633368 C68.0246993,94.796986 66.9007286,91.2501789 66.0054056,87.6533895 C65.1010909,84.0566 64.4408384,80.3961965 63.9225273,76.7195649 C63.4177039,73.0267053 63.3155831,69.3708456 63.1595118,65.5780211 C63.124187,64.7101439 63.5069793,63.9857228 64.1768658,63.9597579 C64.8364761,63.933793 65.2700076,64.5926526 65.3220314,65.440407 L65.3252428,65.4942842 Z" id="Fill-29" fill="#FFFFFF" opacity="0.59154212"></path>
                        <path d="M14.490359,61.677507 C14.490359,61.677507 29.7866372,52.2911912 49.974436,60.1345421 C68.7216254,67.4177 65.1756583,86.4824368 65.1756583,86.4824368 L58.2751203,77.624507 L64.4139273,88.1370509 C64.4139273,88.1370509 43.8105805,94.6055596 31.9960425,77.3337 C25.5951898,67.9759456 25.3299327,62.3746649 14.490359,61.677507" id="Fill-31" fill="#FFFFFF" opacity="0.723335598"></path>
                        <path d="M45.9084879,103.72976 C45.9084879,103.72976 50.6850424,93.9351456 59.0878475,93.8001281 C65.8657121,93.6917246 69.6229857,98.9561105 69.6229857,98.9561105 L64.9902995,98.160286 L68.9903507,100.221251 C68.9903507,100.221251 65.4482373,105.886795 60.0294139,106.527479 C53.6022281,107.286304 51.1160049,100.468567 45.9084879,103.72976" id="Fill-33" fill="#FFFFFF" opacity="0.723335598"></path>
                        <path d="M94.4342862,18.5837368 C94.4342862,18.5837368 74.6112962,17.543193 62.9386997,36.8773158 C52.6065185,53.9907895 63.311858,63.3251754 63.311858,63.3251754 L65.3587692,55.7349825 L65.4114353,64.5740877 C65.4114353,64.5740877 86.477858,61.4316842 88.0912377,46.276614 C89.2755817,35.1493509 87.915256,25.2645088 94.4342862,18.5837368" id="Fill-35" fill="#FFFFFF" opacity="0.723335598"></path>
                        <path d="M81.0683475,27.5624035 C81.0683475,27.5624035 51.2882614,42.4889825 63.1162871,62.0918421 C63.1162871,62.0918421 66.4580126,41.9067193 81.0683475,27.5624035" id="Fill-37" fill="#FFFFFF" opacity="0.59154212"></path>
                        <path d="M101.93207,63.3028456 C101.93207,63.3028456 87.3358651,60.1188982 75.8411771,66.0999158 C66.500017,70.9605474 68.2585495,85.193214 68.2585495,85.193214 L72.6381817,78.982407 L69.4923482,86.7563018 C69.4923482,86.7563018 83.6730051,89.4832667 89.3660774,79.663986 C94.434222,70.9222491 94.0790472,66.4660211 101.93207,63.3028456" id="Fill-39" fill="#FFFFFF" opacity="0.723335598"></path>
                        <path d="M89.0797539,65.8296211 C86.3012983,65.1746561 68.1263705,66.3638491 68.7159734,83.446814 C68.7159734,83.446814 77.9575819,69.2991825 89.0797539,65.8296211" id="Fill-41" fill="#FFFFFF" opacity="0.59154212"></path>
                        <path d="M85.2976887,29.8299193 C85.2976887,29.8383579 87.9342029,39.5193754 82.9444152,47.7333754 C81.3599376,50.3422 80.5281993,51.2659018 79.3733996,52.5044281 C74.2718571,57.9732877 73.211471,60.231586 73.9892587,60.9910596 C75.3136174,62.2847614 83.6637564,54.3842877 85.3850373,48.460393 C86.0825414,46.0592877 86.785826,43.5549719 86.9752953,41.0610421 C87.3889166,35.6226912 85.2976887,29.8299193 85.2976887,29.8299193" id="Fill-43" fill="#FFFFFF" opacity="0.59154212"></path>
                        <path d="M29.386054,60.9554877 C29.386054,60.9554877 44.6996735,59.0412246 55.7396351,67.559014 C63.1571996,73.2816807 64.7622298,78.955014 65.1752087,86.4822421 C64.8983908,87.0028386 55.0607568,65.9991719 29.386054,60.9554877" id="Fill-45" fill="#FFFFFF" opacity="0.59154212"></path>
                        <path d="M47.6358704,102.567765 C47.6358704,102.567765 50.2820186,101.466853 53.6642071,104.05166 C54.463832,104.662484 56.4561504,106.239204 60.1151568,106.113923 C62.8062638,106.021747 64.9238247,103.079923 64.9238247,103.079923 C64.9238247,103.079923 61.5763187,104.076326 59.0830305,104.027642 C56.4388091,103.976361 54.6141229,102.868309 53.687971,102.487274 C50.4258868,101.144888 49.3019161,101.727151 47.6358704,102.567765" id="Fill-47" fill="#FFFFFF" opacity="0.59154212"></path>
                        <path d="M86.3015552,73.5829386 C86.3015552,73.5829386 81.7067628,75.1427807 78.7253502,78.0073596 C75.7432953,80.8725877 74.9102724,83.4463596 74.9102724,83.4463596 C74.9102724,83.4463596 78.2031855,82.6180789 81.3214015,80.3260263 C84.4396174,78.0339737 86.3015552,73.5829386 86.3015552,73.5829386" id="Fill-49" fill="#FFFFFF" opacity="0.59154212"></path>
                        <path d="M49.6087922,99.5161737 C49.6087922,99.5161737 57.3956614,89.0990509 68.4465416,98.3711211 C68.4465416,98.3711211 57.5465946,95.6701211 49.6087922,99.5161737" id="Fill-51" fill="#FFFFFF" opacity="0.59154212"></path>
                        <path d="M57.0036204,101.240374 C57.0036204,101.240374 58.528367,99.6993561 62.656872,99.4624263 C65.2118181,99.3157246 67.4886616,100.031707 67.4886616,100.031707 C67.4886616,100.031707 64.8508629,101.643479 62.4686872,101.928444 C59.0909946,102.331549 57.0036204,101.240374 57.0036204,101.240374" id="Fill-53" fill="#FFFFFF" opacity="0.59154212"></path>
                        <path d="M23.7749995,62.477486 C28.8283719,59.9926439 35.2985896,72.3590825 37.2356729,75.2691 C42.1406812,82.6385912 48.739995,85.1292754 57.1755558,86.3996088 C48.0148733,88.990907 39.0064085,84.4061526 34.2523335,76.8341351 C31.4379108,72.3506439 28.9112246,64.6780123 23.7749995,62.477486" id="Fill-55" fill="#FFFFFF" opacity="0.59154212"></path>
                        <path d="M70.6546624,86.4430351 C73.483215,86.2950351 76.2655242,85.8094912 78.7652351,84.7884211 C80.004172,84.2600351 81.1731015,83.6089649 82.1570576,82.7501754 C83.1564282,81.8939825 84.0517511,80.8696667 84.8648637,79.772 C86.5065032,77.5805614 87.8571949,75.0431404 89.5283788,72.6790351 C90.3485563,71.4859474 91.2657164,70.3493333 92.2432498,69.2782807 C93.2329863,68.2150175 94.3254858,67.2543158 95.4892772,66.4143509 L95.5772681,66.5117193 C94.6793761,67.6347018 93.7917603,68.7297719 93.0152571,69.9085789 C92.224624,71.0744035 91.5014291,72.2765789 90.8019982,73.5001754 C89.4108436,75.9519123 88.1519963,78.5263333 86.4037402,80.9345789 C85.5238317,82.1322105 84.4974858,83.2357193 83.3189222,84.2113509 C82.0921885,85.147386 80.7177328,85.8445439 79.2899689,86.2762105 C77.864774,86.722807 76.3984739,86.9324737 74.9450192,86.9837544 C73.4909222,87.0110175 72.0419634,86.9214386 70.6392479,86.5741579 L70.6546624,86.4430351 Z" id="Fill-57" fill="#FFFFFF" opacity="0.59154212"></path>
                    </g>
                </g>
            </g>
        </g>
    </g>
</svg>