<?xml version="1.0" encoding="UTF-8"?>
<svg width="180px" height="180px" viewBox="0 0 180 180" version="1.1" xmlns="http://www.w3.org/2000/svg" xmlns:xlink="http://www.w3.org/1999/xlink">
    <!-- Generator: sketchtool 42 (36781) - http://www.bohemiancoding.com/sketch -->
    <title>6A1D8B56-9384-403C-BD3D-462EFAF277D5</title>
    <desc>Created with sketchtool.</desc>
    <defs>
        <circle id="path-1" cx="90" cy="90" r="90"></circle>
    </defs>
    <g id="Page-1" stroke="none" stroke-width="1" fill="none" fill-rule="evenodd">
        <g id="Desktop-Secondary-Template" transform="translate(-911.000000, -10671.000000)">
            <g id="Group-8" transform="translate(911.000000, 10671.000000)">
                <g id="Path-6">
                    <mask id="mask-2" fill="white">
                        <use xlink:href="#path-1"></use>
                    </mask>
                    <use id="Mask" fill="#9EC54D" xlink:href="#path-1"></use>
                    <path d="M129.762344,64.8901149 L203.605659,138.487873 L149.285781,165.413727 L127.19283,192 C127.19283,192 74.0475,146.772927 48.2291406,121.763162 C22.4107813,96.7533961 74.0475,64.8901149 74.0475,64.8901149 L129.762344,64.8901149 Z" fill="#6A6A6A" style="mix-blend-mode: multiply;" opacity="0.445425725" mask="url(#mask-2)"></path>
                    <path d="M131.527702,81.973315 L131.527702,63.6378764 C131.527702,59.7667986 127.853032,56.1065967 123.966653,56.1065967 C120.080274,56.1065967 116.405604,59.8119863 116.405604,63.7325554 L116.405604,85.1558186 L114.245305,85.1558186 L114.245305,52.8789053 C114.245305,48.8679609 110.711054,45.3476255 106.684256,45.3476255 C102.797877,45.3476255 99.1232071,49.0078275 99.1232071,52.8789053 L99.1232071,78.700436 L96.9629075,78.700436 L96.9629075,46.4235227 C96.9629075,42.5524449 93.2882378,38.8922429 89.4018587,38.8922429 C85.4441898,38.8922429 81.84081,42.4814356 81.84081,46.4235227 L81.84081,78.700436 L79.6805103,78.700436 L79.6805103,52.8789053 C79.6805103,49.0078275 76.0058406,45.3476255 72.1194616,45.3476255 C68.2330825,45.3476255 64.5584128,49.0078275 64.5584128,52.8789053 L64.5584128,100.218378 L62.3981132,100.218378 L62.3981132,77.6245389 L54.8370644,77.6245389 C50.9506853,77.6245389 47.2760156,81.2847408 47.2760156,85.1558186 L47.2760156,106.673761 C47.2760156,117.092748 65.5543109,140.026571 85.0812594,140.026571 L102.400382,140.026571 C117.101221,140.026571 131.527702,126.054971 131.527702,111.820853 L131.527702,95.6156903 L132.605691,95.5425293 L131.527702,95.5425293 L131.527702,81.973315 Z" id="Shape" fill="#F6CCB1" mask="url(#mask-2)" transform="translate(89.940853, 89.459407) rotate(-270.000000) translate(-89.940853, -89.459407) "></path>
                </g>
            </g>
        </g>
    </g>
</svg>