<?xml version="1.0" encoding="UTF-8"?>
<svg width="70px" height="70px" viewBox="0 0 70 70" version="1.1" xmlns="http://www.w3.org/2000/svg" xmlns:xlink="http://www.w3.org/1999/xlink">
    <!-- Generator: sketchtool 42 (36781) - http://www.bohemiancoding.com/sketch -->
    <title>F5655CF0-7F26-496B-B94A-BCFCD0AAFD55</title>
    <desc>Created with sketchtool.</desc>
    <defs></defs>
    <g id="Symbols" stroke="none" stroke-width="1" fill="none" fill-rule="evenodd">
        <g id="Footer" transform="translate(-1144.000000, -57.000000)">
            <g id="Group-17" transform="translate(885.000000, 58.000000)">
                <g id="Group-5" transform="translate(259.924528, 0.000000)">
                    <ellipse id="Oval-10-Copy-3" stroke="#FFFFFF" cx="34.0377358" cy="34" rx="34.0377358" ry="34"></ellipse>
                    <path d="M42.6590187,14.847534 L42.6590187,20.9981136 C42.6590187,20.9981136 38.1216681,20.5442844 36.985836,22.2819724 C36.3641173,23.2314308 36.7347573,26.0141202 36.6749767,28.0145514 L42.7008652,28.0145514 C42.1927297,30.3493831 41.8280678,31.9318137 41.4514498,33.9501593 L36.6450863,33.9501593 L36.6450863,53.0647274 L28.2997089,53.0647274 C28.305687,47.176891 28.2997089,40.2977962 28.2997089,34.0277879 L24.754717,34.0277879 L24.754717,28.0145514 L28.2638406,28.0145514 C28.4431825,23.6136027 28.5089412,19.2604256 30.6969126,17.0390512 C33.1538969,14.5489622 35.497298,14.847534 42.6590187,14.847534" id="Fill-20" fill="#FFFFFF"></path>
                </g>
            </g>
        </g>
    </g>
</svg>