<?xml version="1.0" encoding="UTF-8"?>
<svg width="180px" height="180px" viewBox="0 0 180 180" version="1.1" xmlns="http://www.w3.org/2000/svg" xmlns:xlink="http://www.w3.org/1999/xlink">
    <!-- Generator: sketchtool 42 (36781) - http://www.bohemiancoding.com/sketch -->
    <title>2FDCDA37-ED1E-45C6-AEA2-0510AAF2CC6B</title>
    <desc>Created with sketchtool.</desc>
    <defs>
        <circle id="path-1" cx="90" cy="90" r="90"></circle>
        <path d="M0.255554745,101.134328 L12.7227299,101.134328 C27.4234307,101.134328 41.8502409,87.1628507 41.8502409,72.928194 L41.8502409,56.7237164 L42.9274672,56.6501642 L41.8502409,56.6501642 L41.8502409,43.0809254 L41.8502409,24.7457313 C41.8502409,20.8750448 38.1750657,17.2146716 34.2890292,17.2146716 C30.4029927,17.2146716 26.7278175,20.9198657 26.7278175,24.8399701 L26.7278175,46.263209 L24.567635,46.263209 L24.567635,13.9864179 C24.567635,9.97667164 21.0334161,6.45535821 17.0064234,6.45535821 C13.1203869,6.45535821 9.44521168,10.1157313 9.44521168,13.9864179 L9.44521168,39.8078507 L7.2850292,39.8078507 L7.2850292,7.5310597 C7.2850292,3.8374207 3.93941787,0.335295427 0.255554745,0.0226445705 L0.255554745,101.134328 L0.255554745,101.134328 Z" id="path-3"></path>
        <path d="M0.753485401,4.25855339 C1.46654372,5.23242637 2.07528572,6.38571655 2.53491971,7.72643284 C4.3570365,2.41573134 8.52269343,0 12.2952774,0 C18.7987445,0 22.2011752,5.96232836 22.2011752,11.8511045 C22.2011752,17.8743433 18.9534526,24.6882687 12.5485401,32.1021045 C7.82020438,37.5737015 3.0219635,41.3650896 2.97383212,41.4030149 C2.84548175,41.5041493 2.69077372,41.5547164 2.53606569,41.5547164 C2.39854745,41.5547164 2.25988321,41.5144925 2.14070073,41.4340448 C2.07874471,41.3922596 1.57004311,41.0485781 0.753485401,40.4375765 L0.753485401,4.25855339 L0.753485401,4.25855339 Z" id="path-5"></path>
    </defs>
    <g id="Page-1" stroke="none" stroke-width="1" fill="none" fill-rule="evenodd">
        <g id="Desktop-" transform="translate(-150.000000, -2525.000000)">
            <g id="Group-15" transform="translate(150.000000, 2525.000000)">
                <g id="Group-13">
                    <mask id="mask-2" fill="white">
                        <use xlink:href="#path-1"></use>
                    </mask>
                    <use id="Mask" fill="#9EC54D" xlink:href="#path-1"></use>
                    <g mask="url(#mask-2)">
                        <g transform="translate(48.000000, 36.000000)">
                            <polygon id="Path-6" fill="#6A6A6A" style="mix-blend-mode: multiply;" opacity="0.445425725" points="79.916814 17.238806 156.329643 99.5956302 102.009766 126.521484 79.916814 153.107757 13.496664 90.8000233"></polygon>
                            <path d="M84.2516862,56.6502864 L84.2516862,43.0810721 L84.2516862,24.7456335 C84.2516862,20.8745557 80.5770165,17.2143538 76.6906375,17.2143538 C72.8042584,17.2143538 69.1295887,20.9197434 69.1295887,24.8403125 L69.1295887,46.2635757 L66.969289,46.2635757 L66.969289,13.9866624 C66.969289,9.97571801 63.4350388,6.45538266 59.4082403,6.45538266 C55.5218612,6.45538266 51.8471915,10.1155846 51.8471915,13.9866624 L51.8471915,39.8081931 L49.6868919,39.8081931 L49.6868919,7.53127977 C49.6868919,3.66020197 46.0122222,0 42.1258431,0 C38.1681742,0 34.5647943,3.58919276 34.5647943,7.53127977 L34.5647943,39.8081931 L32.4044947,39.8081931 L32.4044947,13.9866624 C32.4044947,10.1155846 28.729825,6.45538266 24.8434459,6.45538266 C20.9570669,6.45538266 17.2823972,10.1155846 17.2823972,13.9866624 L17.2823972,61.3261353 L15.1220975,61.3261353 L15.1220975,38.732296 L7.56104876,38.732296 C3.6746697,38.732296 6.53699317e-13,42.3924979 6.53699317e-13,46.2635757 L6.53699317e-13,67.7815179 C6.53699317e-13,78.2005056 18.2782953,101.134328 37.8052438,101.134328 L55.1243661,101.134328 C69.8252052,101.134328 84.2516862,87.1627285 84.2516862,72.9286097 L84.2516862,56.7234474 L85.3296757,56.6502864 L84.2516862,56.6502864 L84.2516862,56.6502864 Z" id="Shape" fill="#F6CCB1"></path>
                            <g id="Page-1" stroke-width="1" fill="none" transform="translate(42.401460, 0.000000)">
                                <mask id="mask-4" fill="white">
                                    <use xlink:href="#path-3"></use>
                                </mask>
                                <g id="Clip-2"></g>
                                <polygon id="Fill-1" fill="#E4BDA2" mask="url(#mask-4)" points="0.255554745 106.880597 48.6585401 106.880597 48.6585401 -5.74626866 0.255554745 -5.74626866"></polygon>
                            </g>
                            <path d="M52.4046691,49.4179104 C48.6328287,49.4179104 44.466627,51.8330577 42.6444058,57.1449289 C40.8500977,51.9129573 36.7869595,49.5348544 33.1138884,49.5348544 C26.4598466,49.5348544 22.9778725,55.9827528 22.9778725,62.3529306 C22.9778725,68.746352 26.3224285,75.7092396 32.6493866,82.4890845 C37.3895951,87.5677941 42.0539374,90.7201968 42.2500445,90.851668 C42.3702853,90.932294 42.5077034,90.9722438 42.6451215,90.9722438 C42.7997169,90.9722438 42.955028,90.9213986 43.0831417,90.8204345 C43.1310949,90.7826638 47.9299924,86.9917906 52.6580337,81.5193938 C59.0630052,74.1061629 62.3109391,67.2929054 62.3109391,61.268475 C62.3102234,55.3798739 58.9076941,49.4179104 52.4046691,49.4179104 L52.4046691,49.4179104 Z" id="Shape" fill="#FF412C"></path>
                            <g id="Page-1" stroke-width="1" fill="none" transform="translate(40.109489, 49.417910)">
                                <mask id="mask-6" fill="white">
                                    <use xlink:href="#path-5"></use>
                                </mask>
                                <g id="Clip-2"></g>
                                <path d="M0.753485401,-5.74626866 C1.82956569,-3.78679104 2.4724635,-1.43197015 2.4724635,1.3411791 L2.4724635,47.3009851 L27.9316752,47.3009851 L27.9316752,-5.74626866 L0.753485401,-5.74626866 Z" id="Fill-1" fill="#D82512" mask="url(#mask-6)"></path>
                            </g>
                        </g>
                    </g>
                </g>
            </g>
        </g>
    </g>
</svg>