<?xml version="1.0" encoding="UTF-8"?>
<svg width="181px" height="181px" viewBox="0 0 181 181" version="1.1" xmlns="http://www.w3.org/2000/svg" xmlns:xlink="http://www.w3.org/1999/xlink">
    <!-- Generator: sketchtool 42 (36781) - http://www.bohemiancoding.com/sketch -->
    <title>26F1CBDE-C881-4164-A3F4-019A1FB2156F</title>
    <desc>Created with sketchtool.</desc>
    <defs>
        <circle id="path-1" cx="90" cy="90" r="90"></circle>
    </defs>
    <g id="Page-1" stroke="none" stroke-width="1" fill="none" fill-rule="evenodd">
        <g id="Desktop-Secondary-Template" transform="translate(-547.000000, -2823.000000)">
            <g id="Group-14" transform="translate(547.500000, 2823.439725)">
                <g id="Group-12">
                    <mask id="mask-2" fill="white">
                        <use xlink:href="#path-1"></use>
                    </mask>
                    <use id="Mask" fill="#9EC54D" xlink:href="#path-1"></use>
                    <path d="M127.486328,63.7441406 L201.329643,137.341899 L147.009766,164.267753 L124.916814,190.854026 C124.916814,190.854026 71.7714844,145.626953 45.953125,120.617187 C20.1347656,95.6074219 71.7714844,63.7441406 71.7714844,63.7441406 L127.486328,63.7441406 Z" id="Path-6" fill="#6A6A6A" style="mix-blend-mode: multiply;" opacity="0.445425725" mask="url(#mask-2)"></path>
                    <path d="M129.251686,80.8273407 L129.251686,62.4919022 C129.251686,58.6208244 125.577017,54.9606224 121.690637,54.9606224 C117.804258,54.9606224 114.129589,58.6660121 114.129589,62.5865811 L114.129589,84.0098444 L111.969289,84.0098444 L111.969289,51.7329311 C111.969289,47.7219867 108.435039,44.2016513 104.40824,44.2016513 C100.521861,44.2016513 96.8471915,47.8618533 96.8471915,51.7329311 L96.8471915,77.5544617 L94.6868919,77.5544617 L94.6868919,45.2775484 C94.6868919,41.4064706 91.0122222,37.7462687 87.1258431,37.7462687 C83.1681742,37.7462687 79.5647943,41.3354614 79.5647943,45.2775484 L79.5647943,77.5544617 L77.4044947,77.5544617 L77.4044947,51.7329311 C77.4044947,47.8618533 73.729825,44.2016513 69.8434459,44.2016513 C65.9570669,44.2016513 62.2823972,47.8618533 62.2823972,51.7329311 L62.2823972,99.0724039 L60.1220975,99.0724039 L60.1220975,76.4785646 L52.5610488,76.4785646 C48.6746697,76.4785646 45,80.1387666 45,84.0098444 L45,105.527787 C45,115.946774 63.2782953,138.880597 82.8052438,138.880597 L100.124366,138.880597 C114.825205,138.880597 129.251686,124.908997 129.251686,110.674878 L129.251686,94.4697161 L130.329676,94.3965551 L129.251686,94.3965551 L129.251686,80.8273407 Z" id="Shape" fill="#F6CCB1" mask="url(#mask-2)" transform="translate(87.664838, 88.313433) rotate(-270.000000) translate(-87.664838, -88.313433) "></path>
                </g>
            </g>
        </g>
    </g>
</svg>