<?xml version="1.0" encoding="UTF-8"?>
<svg width="180px" height="180px" viewBox="0 0 180 180" version="1.1" xmlns="http://www.w3.org/2000/svg" xmlns:xlink="http://www.w3.org/1999/xlink">
    <!-- Generator: sketchtool 42 (36781) - http://www.bohemiancoding.com/sketch -->
    <title>A33478D6-3C44-45F2-B000-7F9D135BAE41</title>
    <desc>Created with sketchtool.</desc>
    <defs>
        <circle id="path-1" cx="90" cy="90" r="90"></circle>
        <path d="M33.2726659,42.42 C33.2726659,39.984 35.2446659,39.056 38.2606659,39.056 C45.3366659,39.056 57.9806659,44.044 66.2166659,48.568 L75.9606659,28.152 C68.3046659,23.28 57.7486659,19.8 46.9606659,18.872 L46.9606659,0.776 L27.7046659,0.776 L27.7046659,20.032 C14.0166659,23.396 5.7806659,32.328 5.7806659,44.972 C5.7806659,73.508 47.8886659,66.548 47.8886659,77.104 C47.8886659,80.004 45.3366659,81.28 41.3926659,81.28 C33.1566659,81.28 18.7726659,75.596 10.4206659,68.636 L0.444665902,88.82 C7.8686659,94.504 17.7286659,98.564 27.7046659,100.42 L27.7046659,120.14 L46.9606659,120.14 L46.9606659,101.58 C62.7366659,99.956 75.3806659,91.836 75.3806659,75.712 C75.3806659,46.248 33.2726659,52.628 33.2726659,42.42 Z" id="path-3"></path>
    </defs>
    <g id="Page-1" stroke="none" stroke-width="1" fill="none" fill-rule="evenodd">
        <g id="Desktop-Secondary-Template" transform="translate(-190.000000, -10671.000000)">
            <g id="Meal" transform="translate(190.000000, 10671.000000)">
                <mask id="mask-2" fill="white">
                    <use xlink:href="#path-1"></use>
                </mask>
                <use id="Mask" fill="#9EC54D" xlink:href="#path-1"></use>
                <g id="Page-1" mask="url(#mask-2)">
                    <g transform="translate(135.016666, 129.733159) scale(-1, 1) translate(-135.016666, -129.733159) translate(51.016666, 26.233159)">
                        <path d="M101.948168,76.2302923 C104.944756,81.2688035 109.30302,86.2576433 115.430728,88.515101 C130.072004,93.908971 167.860023,88.515101 167.860023,88.515101 L136.050568,120.515101 L140.860023,120.515101 L55.4063396,206.480669 L38.0644124,199.830691 L10.2695956,177.55981 L49.28516,139.164164 L38.284244,119.178549 L43.6059102,113.941439 L40.1596549,110.519488 L17.4063396,133.480669 L0.0644123591,126.830691 L34.0404372,85.1057854 L36.6902992,82.4980271 L36.845222,82.1539376 L48.6887358,70.6902337 L92.0061637,28.0610766 L92.2348345,28.5406159 L120.985294,0.712155356 L141.816991,43.9741094 L101.948168,76.2302923 Z" id="Combined-Shape" fill="#6A6A6A" opacity="0.445425725" style="mix-blend-mode: multiply;"></path>
                        <path d="M125.272666,42.42 C125.272666,39.984 127.244666,39.056 130.260666,39.056 C137.336666,39.056 149.980666,44.044 158.216666,48.568 L167.960666,28.152 C160.304666,23.28 149.748666,19.8 138.960666,18.872 L138.960666,0.776 L119.704666,0.776 L119.704666,20.032 C106.016666,23.396 97.7806659,32.328 97.7806659,44.972 C97.7806659,73.508 139.888666,66.548 139.888666,77.104 C139.888666,80.004 137.336666,81.28 133.392666,81.28 C125.156666,81.28 110.772666,75.596 102.420666,68.636 L92.4446659,88.82 C99.8686659,94.504 109.728666,98.564 119.704666,100.42 L119.704666,120.14 L138.960666,120.14 L138.960666,101.58 C154.736666,99.956 167.380666,91.836 167.380666,75.712 C167.380666,46.248 125.272666,52.628 125.272666,42.42 Z" id="$" fill="#FFFFFF" transform="translate(130.202666, 60.458000) scale(-1, 1) translate(-130.202666, -60.458000) "></path>
                        <g id="Group-6" stroke-width="1" fill="none" transform="translate(92.000000, 0.000000)">
                            <mask id="mask-4" fill="white">
                                <use xlink:href="#path-3"></use>
                            </mask>
                            <use id="$" fill="#FFFFFF" transform="translate(38.202666, 60.458000) scale(-1, 1) translate(-38.202666, -60.458000) " xlink:href="#path-3"></use>
                            <rect id="Rectangle-5" fill="#CFE4F5" opacity="0.496150362" mask="url(#mask-4)" x="-40.6083341" y="-58" width="80" height="233"></rect>
                        </g>
                    </g>
                </g>
            </g>
        </g>
    </g>
</svg>