<?xml version="1.0" encoding="UTF-8"?>
<svg width="180px" height="181px" viewBox="0 0 180 181" version="1.1" xmlns="http://www.w3.org/2000/svg" xmlns:xlink="http://www.w3.org/1999/xlink">
    <!-- Generator: sketchtool 42 (36781) - http://www.bohemiancoding.com/sketch -->
    <title>AB699070-07E5-40D3-B082-2A4719046551</title>
    <desc>Created with sketchtool.</desc>
    <defs>
        <circle id="path-1" cx="90" cy="90" r="90"></circle>
    </defs>
    <g id="Page-1" stroke="none" stroke-width="1" fill="none" fill-rule="evenodd">
        <g id="Desktop-Secondary-Template" transform="translate(-187.000000, -2823.000000)">
            <g id="Meal" transform="translate(187.000000, 2823.439725)">
                <mask id="mask-2" fill="white">
                    <use xlink:href="#path-1"></use>
                </mask>
                <use id="Mask" fill="#9EC54D" xlink:href="#path-1"></use>
                <g id="Page-1" mask="url(#mask-2)">
                    <g transform="translate(112.516666, 97.233159) scale(-1, 1) translate(-112.516666, -97.233159) translate(43.016666, -4.766841)">
                        <polygon id="Path-6" fill="#6A6A6A" opacity="0.445425725" style="mix-blend-mode: multiply;" transform="translate(64.364322, 165.350435) scale(-1, 1) translate(-64.364322, -165.350435) " points="78.3281893 126.99438 128.459049 176.55981 100.664232 198.830691 72.9913631 203.70649 0.269595589 131.4056"></polygon>
                        <path d="M35.0936647,84.1569566 C35.0936647,84.1569566 19.2567486,59.3506759 44.3749262,46.9783761 C69.4931038,34.6060764 90.1748966,44.4901834 97.5871041,30.8283993 C104.999312,17.1666151 97.264733,0.0157749636 97.264733,0.0157749636 L119.728295,11.7654447 L131.501241,18.1255818 C131.501241,18.1255818 143.157807,43.9978983 121.555453,56.5761897 C99.9530984,69.1544812 111.244233,84.3850603 111.244233,84.3850603 L35.0936647,84.1569566 Z" id="Path-7" fill="#D0E2A8" transform="translate(82.404617, 42.200418) scale(-1, 1) translate(-82.404617, -42.200418) "></path>
                        <path d="M54.5587131,86.4248771 C53.7823682,86.4248771 53.1540299,85.7969985 53.1540299,85.0224922 C53.1540299,72.3509262 69.8392391,69.2754239 71.3349325,69.0262949 C77.4123935,67.3678862 83.6323453,67.2382656 89.7874868,67.2382656 L90.7205715,67.2414831 L91.6412457,67.2382656 C97.7954679,67.2382656 104.476446,67.3678862 110.552988,69.0262949 C112.048681,69.2754239 128.735729,72.3509262 128.735729,85.0224922 C128.735729,85.7969985 128.10785,86.4248771 127.332425,86.4248771 L54.5587131,86.4248771 Z" id="Fill-4" fill="#6A6A6A"></path>
                        <path d="M100.145876,64.3953627 C100.145876,60.3100145 96.8336552,57.0000919 92.7492263,57.0000919 L88.6808851,57.0000919 C84.5964562,57.0000919 81.2842354,60.3100145 81.2842354,64.3953627 L81.2842354,64.9506171 L85.3443029,64.9506171 L85.3443029,67.9084496 L96.0858085,67.9084496 L96.0858085,64.9506171 L100.145876,64.9506171 L100.145876,64.3953627 Z" id="Fill-8" fill="#231F1F"></path>
                        <path d="M138.429054,88.3693161 C138.540289,83.6873453 129.398817,84.5363145 129.398817,84.5363145 L52.0309269,84.5363145 C52.0309269,84.5363145 42.8894547,83.6873453 43.0011491,88.3693161 C43.1119242,93.0517466 48.7977654,93.7200742 48.7977654,93.7200742 L48.7977654,118.246412 C48.7977654,118.246412 48.0177434,134.745924 61.2840934,134.745924 L90.7148718,134.745924 L120.14611,134.745924 C133.412,134.745924 132.631978,118.246412 132.631978,118.246412 L132.631978,93.7200742 C132.631978,93.7200742 138.317819,93.0517466 138.429054,88.3693161" id="Fill-1" fill="#231F1F"></path>
                    </g>
                </g>
            </g>
        </g>
    </g>
</svg>