<?xml version="1.0" encoding="UTF-8"?>
<svg width="70px" height="70px" viewBox="0 0 70 70" version="1.1" xmlns="http://www.w3.org/2000/svg" xmlns:xlink="http://www.w3.org/1999/xlink">
    <!-- Generator: sketchtool 42 (36781) - http://www.bohemiancoding.com/sketch -->
    <title>F9E6C1DE-B9B9-4157-9DB5-63016E92D3FE</title>
    <desc>Created with sketchtool.</desc>
    <defs></defs>
    <g id="Symbols" stroke="none" stroke-width="1" fill="none" fill-rule="evenodd">
        <g id="Footer" transform="translate(-1057.000000, -57.000000)">
            <g id="Group-17" transform="translate(885.000000, 58.000000)">
                <g id="Group-14" transform="translate(173.283019, 0.000000)">
                    <path d="M46.1740639,50.981389 C44.5495005,51.7454787 43.0760454,52.2886987 41.7578795,52.5991102 C40.438519,52.9095216 39.0134425,53.0647274 37.4820526,53.0647274 C35.7416196,53.0647274 34.7155168,52.8438577 33.3794328,52.4080878 C32.0433489,51.9663484 30.9019737,51.3335866 29.9600853,50.5217413 C29.0134188,49.7039265 28.3612044,48.8323867 27.9944831,47.9130912 C27.6307481,46.9937958 27.4479848,45.6566388 27.4479848,43.9075896 L27.4479848,30.5002029 L22.2792453,30.5002029 L22.2792453,25.0918803 C23.7736047,24.6023854 25.5068704,23.9039596 26.5700038,22.9906336 C27.6403044,22.0832771 28.4932002,20.9848981 29.1382474,19.7074356 C29.7838919,18.4359425 30.228855,16.8122519 30.4707477,14.8363636 L35.8831717,14.8363636 L35.8831717,23.6830899 L44.6797045,23.6830899 L44.6797045,30.5002029 L35.8831717,30.5002029 L35.8831717,40.3080107 C35.8831717,42.522677 35.8545029,43.8001395 36.0880339,44.4269319 C36.3203703,45.0537242 36.9033019,45.7043944 37.5381956,46.0804698 C38.3803406,46.5878731 39.3407442,46.8385901 40.4253792,46.8385901 C42.3527564,46.8385901 44.267591,46.2117977 46.1740639,44.9522436 L46.1740639,50.981389" id="Fill-15" fill="#FFFFFF"></path>
                    <ellipse id="Oval-10-Copy-2" stroke="#FFFFFF" cx="34.0377358" cy="34" rx="34.0377358" ry="34"></ellipse>
                </g>
            </g>
        </g>
    </g>
</svg>