<?xml version="1.0" encoding="UTF-8"?>
<svg width="70px" height="70px" viewBox="0 0 70 70" version="1.1" xmlns="http://www.w3.org/2000/svg" xmlns:xlink="http://www.w3.org/1999/xlink">
    <!-- Generator: sketchtool 42 (36781) - http://www.bohemiancoding.com/sketch -->
    <title>E6B95F64-7DC0-44B2-BABF-FE200C0D8AA5</title>
    <desc>Created with sketchtool.</desc>
    <defs></defs>
    <g id="Symbols" stroke="none" stroke-width="1" fill="none" fill-rule="evenodd">
        <g id="Footer" transform="translate(-971.000000, -57.000000)">
            <g id="Group-17" transform="translate(885.000000, 58.000000)">
                <g id="Group-15" transform="translate(86.641509, 0.000000)">
                    <path d="M51.4832189,24.8978219 C51.499021,25.2819146 51.5080508,25.6682667 51.5080508,26.0568781 C51.5080508,37.8778958 42.5188725,51.5064085 26.0800989,51.5064085 C21.0324337,51.5064085 16.3346738,50.0265219 12.3773585,47.4892507 C13.077169,47.570588 13.7882667,47.613516 14.5106517,47.613516 C18.6982272,47.613516 22.5516997,46.1833356 25.6105487,43.7838859 C21.6983824,43.7115861 18.397986,41.1246088 17.262487,37.5706216 C17.8065332,37.6768119 18.3663816,37.7332962 18.9420322,37.7332962 C19.7569727,37.7332962 20.5470813,37.6225871 21.2965558,37.4192439 C17.2083082,36.5968337 14.1291421,32.9818435 14.1291421,28.6483741 L14.1291421,28.5354057 C15.3346221,29.2041789 16.7116685,29.6063465 18.1767556,29.6537933 C15.7793403,28.0496414 14.2013806,25.3112864 14.2013806,22.209173 C14.2013806,20.5688712 14.641584,19.0325004 15.4113755,17.7107697 C19.8201814,23.121958 26.4051722,26.6849826 33.8321929,27.0577785 C33.6809436,26.4025615 33.6019327,25.7202321 33.6019327,25.0175684 C33.6019327,20.0785882 37.6021396,16.0727273 42.5391896,16.0727273 C45.1104287,16.0727273 47.433348,17.1594837 49.0632291,18.8991977 C51.0994518,18.49703 53.0115146,17.7536977 54.7384663,16.7279442 C54.0725176,18.815601 52.654837,20.5688712 50.8082404,21.675962 C52.6164603,21.4613219 54.3388971,20.9800764 55.9416888,20.2683752 C54.7429812,22.062314 53.2282301,23.6370941 51.4832189,24.8978219" id="Twitter-3" fill="#FFFFFF"></path>
                    <ellipse id="Oval-10-Copy" stroke="#FFFFFF" cx="34.0377358" cy="34" rx="34.0377358" ry="34"></ellipse>
                </g>
            </g>
        </g>
    </g>
</svg>