<?xml version="1.0" encoding="UTF-8"?>
<svg width="290px" height="83px" viewBox="0 0 290 83" version="1.1" xmlns="http://www.w3.org/2000/svg" xmlns:xlink="http://www.w3.org/1999/xlink">
    <!-- Generator: sketchtool 42 (36781) - http://www.bohemiancoding.com/sketch -->
    <title>7C85AEA2-9E3F-4C8B-A892-EFF409D8F880</title>
    <desc>Created with sketchtool.</desc>
    <defs>
        <linearGradient x1="50%" y1="63.9898838%" x2="50%" y2="104.897837%" id="linearGradient-1">
            <stop stop-color="#C5E4F6" offset="0%"></stop>
            <stop stop-color="#FFFFFF" offset="100%"></stop>
        </linearGradient>
        <polygon id="path-2" points="0.000144386051 83 96.900511 83 96.900511 0.053925731 0.000144386051 0.053925731 0.000144386051 83"></polygon>
        <polygon id="path-4" points="10.99244 26.2960349 10.99244 0.102687012 0.619888472 0.102687012 0.619888472 26.2960349 10.99244 26.2960349"></polygon>
    </defs>
    <g id="Symbols" stroke="none" stroke-width="1" fill="none" fill-rule="evenodd">
        <g id="Nav" transform="translate(-18.000000, -10.000000)">
            <g id="Page-1" transform="translate(18.000000, 10.000000)">
                <polygon id="Fill-24" fill="url(#linearGradient-1)" points="6 40.0657804 16.8238802 40.0657804 16.8238802 81 23.8287813 81 34.4530014 81 78.901847 81 78.901847 39.5827721 91 39.5827721 48.6955805 3"></polygon>
                <g id="Group-23" transform="translate(134.000000, 60.000000)" fill="#583B13">
                    <path d="M1.1527164,20.4904636 C1.08653651,19.7382818 0.963541799,19.0051909 0.786853968,18.2886455 C0.609541799,17.5727364 0.365425397,16.8479182 0.0551291005,16.1135545 L0.553975661,16.1135545 C3.2136582,16.1135545 4.54349947,15.3263727 4.54349947,13.7507364 C4.54349947,13.3396455 4.39303386,12.9011909 4.0946,12.4353727 C3.79491746,11.9695545 3.37973228,11.4509182 2.84779577,10.8781909 C2.49254709,10.4842818 2.14978519,10.1043727 1.8170127,9.73719091 C1.48486455,9.37000909 1.18580635,8.98500909 0.919838095,8.58219091 C0.653869841,8.17937273 0.437224339,7.74982727 0.271774603,7.29355455 C0.10507619,6.83728182 0.0220391534,6.32246364 0.0220391534,5.74973636 C0.0220391534,4.99755455 0.199351323,4.30391818 0.553975661,3.66819091 C0.907975661,3.0331 1.41244127,2.4871 2.06674815,2.03082727 C2.72043069,1.57391818 3.50147831,1.21628182 4.41051534,0.956645455 C5.31892804,0.697009091 6.32661058,0.567190909 7.43543598,0.567190909 L7.98360529,0.567190909 C8.19400741,0.567190909 8.44374286,0.576736364 8.73156296,0.593918182 C9.10803915,1.27482727 9.4401873,1.95000909 9.72863175,2.62137273 C10.0164519,3.29273636 10.2605683,3.97746364 10.4597323,4.67491818 C9.63997566,4.53237273 8.97505503,4.4611 8.46559471,4.4611 C7.57903386,4.4611 6.89725608,4.61319091 6.42088571,4.91673636 C5.94451534,5.22155455 5.70664233,5.63328182 5.70664233,6.15255455 C5.70664233,6.61773636 5.88957354,7.04791818 6.25543598,7.44119091 C6.62067407,7.8351 7.0801873,8.3181 7.6346,8.89082727 C8.56548889,9.85746364 9.29097037,10.7668273 9.81166878,11.6163727 C10.3323672,12.4671909 10.5933407,13.3931 10.5933407,14.3953727 C10.5933407,15.2907364 10.3935524,16.1097364 9.9946,16.8523727 C9.59564762,17.5950091 9.01938307,18.2351909 8.26643069,18.7722818 C7.51285397,19.3093727 6.59257884,19.7300091 5.50747831,20.0341909 C4.4211291,20.3383727 3.19118201,20.4904636 1.8170127,20.4904636 L1.1527164,20.4904636 Z" id="Fill-1"></path>
                    <path d="M17.528182,13.5737636 C17.5431661,12.9590364 17.5556529,12.4754 17.5637693,12.1234909 C17.5712614,11.7709455 17.5756317,11.5310364 17.5756317,11.4024909 C17.5756317,10.5701273 17.5519069,9.74349091 17.5044571,8.92385455 C17.4570074,8.10421818 17.3933249,7.27821818 17.3140339,6.44585455 L21.4764995,6.27212727 C21.4290497,7.87385455 21.385346,9.44949091 21.3460127,10.9990364 C21.3066794,12.5492182 21.2867005,14.0924 21.2867005,15.6292182 C21.2867005,16.2064 21.2941926,16.8917636 21.3104254,17.6859455 C21.3260339,18.4801273 21.3497587,19.3831273 21.3816,20.3949455 C20.0811026,20.2670364 18.7331556,20.1900364 17.3377587,20.1639455 C17.3696,19.5110364 17.3970709,18.8581273 17.4207958,18.2045818 C17.4445206,17.5510364 17.4719915,16.8981273 17.5044571,16.2445818 L16.077219,16.2834 C15.9973037,17.6159455 15.949854,18.9281273 15.9342455,20.2218545 C15.6645312,20.2097636 15.4073037,20.1995818 15.1613143,20.1932182 C14.9147005,20.1868545 14.6811979,20.1836727 14.4595577,20.1836727 C14.2691344,20.1836727 13.9756952,20.1900364 13.5792402,20.2027636 C13.1827852,20.2161273 12.6833143,20.2345818 12.0802032,20.2606727 C12.1594942,18.1854909 12.2113143,16.3502182 12.2350392,14.7554909 C12.2593884,13.1607636 12.2712508,11.8002182 12.2712508,10.6725818 C12.2712508,10.1857636 12.2625101,9.59330909 12.2475259,8.89521818 C12.2312931,8.19712727 12.1676106,7.38703636 12.0564783,6.46430909 C12.6433566,6.4134 13.2183725,6.37776364 13.7815259,6.35867273 C14.344055,6.33958182 14.9034624,6.33003636 15.4591238,6.33003636 L16.1009439,6.33003636 C16.1165524,6.94476364 16.1284148,7.54994545 16.1365312,8.14621818 C16.1440233,8.74121818 16.1483937,9.3464 16.1483937,9.96176364 C16.1483937,10.3588545 16.1246688,11.5628545 16.077219,13.5737636 L17.528182,13.5737636 Z" id="Fill-3"></path>
                    <path d="M29.5168571,20.0492091 C28.6602646,20.1516636 27.8873333,20.2280273 27.1974392,20.2795727 C26.507545,20.3304818 25.8850794,20.3559364 25.3300423,20.3559364 C24.9173545,20.3559364 24.4778201,20.3400273 24.0101905,20.3082091 C23.5419365,20.2757545 23.0299788,20.2343909 22.4755661,20.1834818 C22.6972063,19.0946636 22.8639048,18.0217545 22.975037,16.9647545 C23.085545,15.9083909 23.1492275,14.8482091 23.1654603,13.7848455 L21.9760952,13.6893909 C22.499291,12.9588455 22.895746,12.2289364 23.1654603,11.4983909 C23.1329947,10.6660273 23.0817989,9.84002727 23.0106243,9.02039091 C22.9394497,8.20075455 22.8401799,7.38048182 22.7134392,6.56084545 C23.4270582,6.48384545 24.1007196,6.42339091 24.735672,6.37820909 C25.3693757,6.33302727 25.9799788,6.31075455 26.5668571,6.31075455 C27.0107619,6.31075455 27.4502963,6.32093636 27.8873333,6.33939091 C28.3231217,6.35848182 28.7632804,6.38139091 29.2071852,6.40748182 C29.2864762,6.6633 29.3464127,6.90002727 29.385746,7.1183 C29.4257037,7.3353 29.4456825,7.53448182 29.4456825,7.7133 C29.4456825,8.11039091 29.3264339,8.57811818 29.0879365,9.11584545 C28.675873,9.10375455 28.275672,9.09357273 27.8873333,9.08720909 C27.4983704,9.08148182 27.1218942,9.0713 26.7572804,9.05857273 C26.8047302,9.66120909 26.828455,10.2950273 26.828455,10.9606636 L29.7547302,10.9033909 C29.8340212,11.2362091 29.9008254,11.5244818 29.9563915,11.7675727 C30.0119577,12.0113 30.0400529,12.2225727 30.0400529,12.4013909 C30.0400529,12.5681182 30.0238201,12.7507545 29.9926032,12.9493 C29.9607619,13.1478455 29.9289206,13.3693 29.8970794,13.6123909 C28.8981376,13.7148455 27.8991958,13.7727545 26.900254,13.7848455 C26.8521799,15.0276636 26.7810053,16.1673909 26.6861058,17.2053 L27.3279259,17.2053 C27.8192804,17.2053 28.3075132,17.1989364 28.7913757,17.1862091 C29.2746138,17.1734818 29.7547302,17.1543909 30.2304762,17.1283 C30.2142434,17.6412091 30.1511852,18.1369364 30.0400529,18.6173909 C29.9289206,19.0978455 29.7547302,19.5751182 29.5168571,20.0492091" id="Fill-5"></path>
                    <path d="M37.8661376,20.3183273 C36.8347302,20.2922364 35.7689841,20.2731455 34.6664021,20.2604182 C33.5638201,20.2476909 32.4106667,20.2343273 31.2050688,20.2222364 C31.3480423,18.7490545 31.4348254,17.4196909 31.467291,16.2347818 C31.4985079,15.0505091 31.5147407,13.9839636 31.5147407,13.0364182 C31.5147407,11.8706 31.4947619,10.7366 31.4548042,9.63505455 C31.4154709,8.53287273 31.3236931,7.43832727 31.1813439,6.34950909 L34.9398624,6.19614545 C34.9236296,6.68232727 34.9161376,7.06732727 34.9161376,7.3486 L34.9161376,7.90541818 C34.9161376,8.78996364 34.931746,9.73432727 34.9642116,10.7397818 C34.9954286,11.7452364 35.0116614,12.8308727 35.0116614,13.9960545 C35.0116614,14.4192364 35.0029206,14.9251455 34.9879365,15.5144182 C34.9717037,16.1036909 34.9473545,16.7826909 34.9161376,17.5507818 L36.4388995,17.5507818 L36.9496085,17.5507818 C37.2118307,17.5507818 37.5483492,17.5450545 37.961037,17.5316909 C38.0091111,18.0573273 38.032836,18.3907818 38.032836,18.5307818 C38.032836,18.8260545 38.0159788,19.1206909 37.9847619,19.4146909 C37.9529206,19.7099636 37.9135873,20.0109636 37.8661376,20.3183273" id="Fill-7"></path>
                    <path d="M45.8343841,9.38515455 C45.0733153,9.30815455 44.3122466,9.25088182 43.5511778,9.2127 C43.455654,11.0059727 43.3882254,12.5587 43.3488921,13.8715182 C43.3089344,15.1849727 43.2895799,16.2642455 43.2895799,17.1093364 C43.2895799,17.5834273 43.300818,18.0607 43.3245429,18.5411545 C43.3488921,19.0216091 43.3757386,19.5109727 43.4082042,20.0105182 C42.7738762,20.0493364 42.1195693,20.0875182 41.4459079,20.1257 C40.7716222,20.1638818 40.0542571,20.2027 39.292564,20.2415182 C39.3087968,16.5900636 39.4274212,12.8889727 39.6496857,9.13506364 C39.285072,9.12297273 38.9835164,9.11279091 38.7456434,9.10706364 C38.5083947,9.1007 38.3179714,9.09688182 38.1743735,9.09688182 L37.5088286,9.09688182 L37.5088286,8.25179091 C37.5088286,8.16206364 37.5044582,7.96033636 37.4969661,7.64660909 C37.4888497,7.33224545 37.4851037,6.90651818 37.4851037,6.36879091 C38.2942466,6.43242727 39.1027651,6.48142727 39.9119079,6.51260909 C40.7204265,6.54442727 41.536437,6.56097273 42.3618127,6.56097273 C42.8531672,6.56097273 43.3882254,6.55142727 43.9676116,6.53233636 C44.5463735,6.51260909 45.192564,6.47124545 45.9055587,6.40697273 C45.8737175,6.74042727 45.8468709,7.05033636 45.8225217,7.33860909 C45.7987968,7.62688182 45.7869344,7.89288182 45.7869344,8.13597273 C45.7869344,8.27724545 45.7906804,8.45288182 45.7987968,8.66479091 C45.8069132,8.87606364 45.8187757,9.11597273 45.8343841,9.38515455" id="Fill-9"></path>
                    <path d="M53.303909,20.0492091 C52.4473164,20.1516636 51.6743852,20.2280273 50.984491,20.2795727 C50.2945968,20.3304818 49.6721312,20.3559364 49.1170942,20.3559364 C48.7044063,20.3559364 48.264872,20.3400273 47.7972423,20.3082091 C47.3289884,20.2757545 46.8170307,20.2343909 46.262618,20.1834818 C46.4842582,19.0946636 46.6509566,18.0217545 46.7620889,16.9647545 C46.8725968,15.9083909 46.9362794,14.8482091 46.9525122,13.7848455 L45.7631471,13.6893909 C46.2863429,12.9588455 46.6827979,12.2289364 46.9525122,11.4983909 C46.9200466,10.6660273 46.8688508,9.84002727 46.7976762,9.02039091 C46.7265016,8.20075455 46.6272317,7.38048182 46.500491,6.56084545 C47.2141101,6.48384545 47.8877714,6.42339091 48.5227238,6.37820909 C49.1564275,6.33302727 49.7670307,6.31075455 50.353909,6.31075455 C50.7978138,6.31075455 51.2373481,6.32093636 51.6743852,6.33939091 C52.1101735,6.35848182 52.5503323,6.38139091 52.994237,6.40748182 C53.073528,6.6633 53.1334646,6.90002727 53.1727979,7.1183 C53.2127556,7.3353 53.2327344,7.53448182 53.2327344,7.7133 C53.2327344,8.11039091 53.1134857,8.57811818 52.8749884,9.11584545 C52.4629249,9.10375455 52.0627238,9.09357273 51.6743852,9.08720909 C51.2854222,9.08148182 50.908946,9.0713 50.5443323,9.05857273 C50.591782,9.66120909 50.6155069,10.2950273 50.6155069,10.9606636 L53.541782,10.9033909 C53.621073,11.2362091 53.6878772,11.5244818 53.7434434,11.7675727 C53.7990095,12.0113 53.8271048,12.2225727 53.8271048,12.4013909 C53.8271048,12.5681182 53.810872,12.7507545 53.779655,12.9493 C53.7478138,13.1478455 53.7159725,13.3693 53.6841312,13.6123909 C52.6851894,13.7148455 51.6862476,13.7727545 50.6873058,13.7848455 C50.6392317,15.0276636 50.5680571,16.1673909 50.4731577,17.2053 L51.1149778,17.2053 C51.6063323,17.2053 52.0945651,17.1989364 52.5784275,17.1862091 C53.0616656,17.1734818 53.541782,17.1543909 54.017528,17.1283 C54.0012952,17.6412091 53.938237,18.1369364 53.8271048,18.6173909 C53.7159725,19.0978455 53.541782,19.5751182 53.303909,20.0492091" id="Fill-11"></path>
                    <path d="M59.2027852,12.7093273 C59.6466899,12.5171455 59.9519915,12.2511455 60.1186899,11.9119636 C60.284764,11.5727818 60.3684254,11.1273273 60.3684254,10.5762364 C60.3684254,9.53896364 60.0987111,9.02032727 59.5592825,9.02032727 C59.4169333,9.02032727 59.2664677,9.05850909 59.1078857,9.13550909 C59.1391026,9.78841818 59.1590815,10.4069636 59.1665735,10.9898727 C59.1746899,11.5727818 59.1871767,12.1455091 59.2027852,12.7093273 L59.2027852,12.7093273 Z M58.750764,6.61869091 C59.1153778,6.49078182 59.4525206,6.39087273 59.7621926,6.32087273 C60.0712402,6.25023636 60.3840339,6.2146 60.7011979,6.2146 C61.1769439,6.2146 61.6089862,6.31387273 61.9979492,6.51305455 C62.3862878,6.7116 62.7196847,6.99032727 62.996891,7.3486 C63.2740974,7.70750909 63.4919915,8.1396 63.6511979,8.64550909 C63.8091556,9.15141818 63.8890709,9.71841818 63.8890709,10.3458727 C63.8890709,11.6905091 63.4208169,12.7029636 62.4855577,13.3819636 C63.1036529,15.5596 63.9521291,17.7111455 65.0309862,19.8378727 C63.7617058,20.2343273 62.4218751,20.5486909 61.0108698,20.7796909 L59.6067323,14.5732364 L59.2027852,14.8226909 C59.2027852,15.7193273 59.1509651,16.5968727 59.0479492,17.4553273 C58.9449333,18.3137818 58.8063302,19.1716 58.6321397,20.0300545 C57.2998011,20.0682364 55.9674624,20.2025091 54.6357481,20.4335091 C54.9048381,19.1391455 55.1071238,17.8587818 55.241981,16.5905091 C55.3768381,15.3222364 55.4442667,14.0418727 55.4442667,12.7481455 C55.4442667,11.7484182 55.4086794,10.7595091 55.3375048,9.77950909 C55.2657058,8.79887273 55.1508275,7.81632727 54.9922455,6.82996364 C56.2290603,6.62441818 57.4028169,6.2916 58.5135153,5.83023636 L58.750764,6.61869091 Z" id="Fill-13"></path>
                    <path d="M79.6706032,10.9319636 C79.692455,10.0722364 79.7093122,9.39705455 79.7205503,8.90387273 C79.7317884,8.4126 79.7367831,8.07723636 79.7367831,7.89714545 C79.7367831,6.73387273 79.7043175,5.57950909 79.6375132,4.43405455 C79.5713333,3.2886 79.4820529,2.13423636 79.371545,0.970327273 L85.1891323,0.728509091 C85.122328,2.96596364 85.0611429,5.16778182 85.0062011,7.33396364 C84.9506349,9.49950909 84.923164,11.6567818 84.923164,13.8051455 C84.923164,14.6101455 84.9344021,15.5678727 84.956254,16.6776909 C84.9781058,17.7875091 85.0111958,19.0500545 85.0561481,20.4640545 C83.2386984,20.2846 81.3544444,20.1770545 79.4046349,20.1414182 C79.4495873,19.2282364 79.4882963,18.3156909 79.5213862,17.4025091 C79.5544762,16.4893273 79.5931852,15.5767818 79.6375132,14.6636 L77.6433757,14.7176909 C77.531619,16.5796909 77.4654392,18.4143273 77.4435873,20.2222364 C77.0664868,20.2044182 76.7068677,20.1910545 76.3634815,20.1815091 C76.0194709,20.1726 75.6929418,20.1687818 75.3826455,20.1687818 C75.1166772,20.1687818 74.7064868,20.1770545 74.1526984,20.1955091 C73.5982857,20.2133273 72.9002751,20.2394182 72.0586667,20.2756909 C72.1691746,17.3757818 72.2415979,14.8118727 72.2740635,12.5833273 C72.3077778,10.3547818 72.3240106,8.45269091 72.3240106,6.87705455 C72.3240106,6.19741818 72.3133968,5.36950909 72.291545,4.39396364 C72.2690688,3.41778182 72.1797884,2.28569091 72.0255767,0.997054545 C72.844709,0.925145455 73.6482328,0.876145455 74.4348995,0.849418182 C75.2215661,0.822054545 76.0026138,0.809327273 76.7786667,0.809327273 L77.6764656,0.809327273 C77.6983175,1.66778182 77.7145503,2.51350909 77.7264127,3.34650909 C77.7370265,4.17887273 77.7426455,5.0246 77.7426455,5.88369091 C77.7426455,6.4386 77.7095556,8.12178182 77.6433757,10.9319636 L79.6706032,10.9319636 Z" id="Fill-15"></path>
                    <path d="M91.5092497,10.2117273 C90.7163397,10.2117273 90.320509,11.4927273 90.320509,14.0540909 C90.320509,15.0410909 90.4066677,15.7805455 90.5821069,16.2730909 C90.7562974,16.7669091 91.0022868,17.0131818 91.3188265,17.0131818 C91.6834402,17.0131818 91.9856201,16.709 92.2234931,16.1006364 C92.4607418,15.4922727 92.5799905,14.5924545 92.5799905,13.4011818 C92.5799905,11.2750909 92.2234931,10.2117273 91.5092497,10.2117273 M91.3425513,20.433 C89.883472,20.433 88.7178317,19.8666364 87.846255,18.7332727 C86.9734296,17.5992727 86.5376413,15.925 86.5376413,13.7085455 C86.5376413,11.249 86.9902868,9.38190909 87.8937048,8.10727273 C88.7977471,6.83263636 90.0657788,6.19563636 91.7002974,6.19563636 C93.1425196,6.19563636 94.2844349,6.81354545 95.125419,8.05 C95.9657788,9.28645455 96.3859587,11.0892727 96.3859587,13.4590909 C96.3859587,14.5606364 96.262964,15.5431818 96.0175989,16.408 C95.7709852,17.2728182 95.4300963,18.0027273 94.9943079,18.5983636 C94.5578952,19.194 94.0309534,19.649 93.4128582,19.9627273 C92.7941386,20.2758182 92.1042444,20.433 91.3425513,20.433" id="Fill-17"></path>
                    <path d="M106.519037,20.5488818 C106.249323,19.6904273 106.031429,18.7301545 105.86473,17.6667909 C105.698656,16.6034273 105.568169,15.4248818 105.472021,14.1311545 C105.202931,15.1429727 104.996899,16.1229727 104.853926,17.0705182 C104.710952,18.0187 104.624169,18.9535182 104.592328,19.8756091 L102.189249,20.1447909 C102.062508,19.1838818 101.90018,18.2077 101.702265,17.2149727 C101.503725,16.2222455 101.270222,15.1945182 101.000508,14.1311545 C100.888751,15.1175182 100.806339,16.0529727 100.750772,16.9362455 C100.695206,17.8201545 100.667111,18.6658818 100.667111,19.4727909 L100.667111,20.2797 C100.001566,20.1906091 99.3547513,20.1129727 98.7285397,20.0493364 C98.102328,19.9850636 97.471746,19.9335182 96.837418,19.8953364 C97.6140952,16.8471545 98.0030582,13.7404273 98.0030582,10.5764273 C98.0030582,10.0380636 97.9874497,9.44942727 97.9556085,8.80860909 C97.9231429,8.16842727 97.8756931,7.47033636 97.8132593,6.71433636 C98.3995132,6.58706364 98.9745291,6.47760909 99.5370582,6.38788182 C100.100212,6.29815455 100.675228,6.22751818 101.262106,6.17660909 C101.658561,7.40606364 102.023175,8.7577 102.355947,10.2302455 C102.689344,11.7040636 102.96655,13.3306091 103.188815,15.1111545 C103.648328,13.4203364 104.029175,11.8478818 104.33073,10.3937909 C104.632286,8.94033636 104.84581,7.57279091 104.97255,6.29179091 C106.098857,6.45788182 107.23328,6.54124545 108.374571,6.54124545 L108.731069,6.54124545 C108.604328,7.33542727 108.509429,8.10097273 108.445746,8.83788182 C108.382063,9.57415455 108.350847,10.2881545 108.350847,10.9798818 C108.350847,12.3378818 108.481958,13.7181545 108.743556,15.1207 C109.004529,16.5232455 109.38163,17.9805182 109.872984,19.4918818 C109.28673,19.6331545 108.71546,19.7897 108.160423,19.9627909 C107.604762,20.1358818 107.057841,20.3306091 106.519037,20.5488818" id="Fill-19"></path>
                    <path d="M117.17606,20.0492091 C116.319468,20.1516636 115.546537,20.2280273 114.856642,20.2795727 C114.166748,20.3304818 113.544283,20.3559364 112.989246,20.3559364 C112.576558,20.3559364 112.137023,20.3400273 111.669394,20.3082091 C111.20114,20.2757545 110.689182,20.2343909 110.134769,20.1834818 C110.35641,19.0946636 110.523108,18.0217545 110.63424,16.9647545 C110.744748,15.9083909 110.808431,14.8482091 110.824663,13.7848455 L109.635298,13.6893909 C110.158494,12.9588455 110.554949,12.2289364 110.824663,11.4983909 C110.792198,10.6660273 110.741002,9.84002727 110.669828,9.02039091 C110.598653,8.20075455 110.499383,7.38048182 110.372642,6.56084545 C111.086261,6.48384545 111.759923,6.42339091 112.394875,6.37820909 C113.028579,6.33302727 113.639182,6.31075455 114.22606,6.31075455 C114.669965,6.31075455 115.109499,6.32093636 115.546537,6.33939091 C115.982325,6.35848182 116.422484,6.38139091 116.866388,6.40748182 C116.945679,6.6633 117.005616,6.90002727 117.044949,7.1183 C117.084907,7.3353 117.104886,7.53448182 117.104886,7.7133 C117.104886,8.11039091 116.985637,8.57811818 116.74714,9.11584545 C116.335076,9.10375455 115.934875,9.09357273 115.546537,9.08720909 C115.157574,9.08148182 114.781097,9.0713 114.416484,9.05857273 C114.463933,9.66120909 114.487658,10.2950273 114.487658,10.9606636 L117.413933,10.9033909 C117.493224,11.2362091 117.560029,11.5244818 117.615595,11.7675727 C117.671161,12.0113 117.699256,12.2225727 117.699256,12.4013909 C117.699256,12.5681182 117.683023,12.7507545 117.651806,12.9493 C117.619965,13.1478455 117.588124,13.3693 117.556283,13.6123909 C116.557341,13.7148455 115.558399,13.7727545 114.559457,13.7848455 C114.511383,15.0276636 114.440208,16.1673909 114.345309,17.2053 L114.987129,17.2053 C115.478484,17.2053 115.966716,17.1989364 116.450579,17.1862091 C116.933817,17.1734818 117.413933,17.1543909 117.889679,17.1283 C117.873447,17.6412091 117.810388,18.1369364 117.699256,18.6173909 C117.588124,19.0978455 117.413933,19.5751182 117.17606,20.0492091" id="Fill-21"></path>
                </g>
                <g id="Group-84">
                    <g id="Group-28">
                        <mask id="mask-3" fill="white">
                            <use xlink:href="#path-2"></use>
                        </mask>
                        <g id="Clip-27"></g>
                        <polygon id="Fill-26" fill="#583B13" mask="url(#mask-3)" points="81.0835004 83.0000485 34.3558427 83.0000485 34.3558427 78.6534696 76.7735768 78.6534696 76.7735768 36.7884637 85.2191982 36.7884637 48.6409173 5.77461579 11.6468046 37.271417 18.832417 37.271417 18.832417 78.6534696 23.701596 78.6534696 23.701596 83.0000485 14.5224934 83.0000485 14.5224934 41.6175105 0.000144386051 41.6175105 48.6351418 0.053925731 96.900511 41.1350427 81.0835004 41.1350427"></polygon>
                    </g>
                    <path d="M48.9517323,48.9732035 C49.6842509,51.5539696 48.4502314,67.275917 57.6269275,77.7873088 L57.5417398,77.8008994 C58.0802997,78.357145 58.5688059,79.3618819 58.1500863,80.0443263 C57.7308855,80.7267708 56.9545698,80.8287006 56.4164912,80.2714842 C56.4097531,80.2646889 56.3986835,80.2525544 56.3919455,80.2457591 C54.6010772,78.2974433 53.1913881,75.9166538 52.0858722,73.401414 C50.9745809,70.8842327 50.1323289,68.2321158 49.4614151,65.5426246 C48.7837632,62.8531333 48.2890003,60.1160749 47.9006019,57.3668819 C47.5223104,54.6055544 47.4457858,51.8718936 47.3288331,49.0358175 C47.3023623,48.3868643 47.5892093,47.8451801 48.0911914,47.8257649 C48.585473,47.8063497 48.9103416,48.2990105 48.9493259,48.932917 L48.9517323,48.9732035 Z" id="Fill-29" fill="#583B13"></path>
                    <path d="M10.8584086,46.119217 C10.8584086,46.119217 22.3207359,39.1006205 37.4485438,44.9654684 C51.4968252,50.4114333 48.8396406,64.6670474 48.8396406,64.6670474 L43.6686948,58.0435503 L48.2688344,65.9042813 C48.2688344,65.9042813 32.829634,70.7410942 23.9763626,57.8261 C19.179858,50.8288602 18.9810865,46.6405152 10.8584086,46.119217" id="Fill-31" fill="#9EC54D"></path>
                    <path d="M34.4017093,77.5636942 C34.4017093,77.5636942 37.9810395,70.2397936 44.2777152,70.1388345 C49.3567352,70.057776 52.1722632,73.9942088 52.1722632,73.9942088 L48.7007412,73.3991327 L51.6981956,74.9402146 C51.6981956,74.9402146 49.0438987,79.1766123 44.9832817,79.6556825 C40.1670443,80.2230918 38.303983,75.1251444 34.4017093,77.5636942" id="Fill-33" fill="#83A44A"></path>
                    <path d="M47.1633667,27.5749298 C39.4209053,40.3714912 47.4429943,47.3512573 47.4429943,47.3512573 L48.9768555,41.6757076 L49.016321,48.2851287 C49.016321,48.2851287 64.8025293,45.9354035 66.0115218,34.6032339 C66.8990147,26.282848 65.8796492,18.8914795 70.7647106,13.8959474 C70.7647106,13.8959474 55.9102737,13.117883 47.1633667,27.5749298 Z" id="Fill-35" fill="#9EC54D"></path>
                    <path d="M60.7488909,20.6097251 C60.7488909,20.6097251 38.4330641,31.7710409 47.2964425,46.4290351 C47.2964425,46.4290351 49.8005779,31.335655 60.7488909,20.6097251" id="Fill-37" fill="#83A44A"></path>
                    <path d="M76.383205,47.3345602 C76.383205,47.3345602 65.4454803,44.9537708 56.8318898,49.4260632 C49.8320541,53.0605895 51.1498174,63.7030339 51.1498174,63.7030339 L54.4317124,59.058917 L52.0743694,64.8718292 C52.0743694,64.8718292 62.7007015,66.9109111 66.966828,59.5685661 C70.7646625,53.031952 70.4985108,49.6998175 76.383205,47.3345602" id="Fill-39" fill="#83A44A"></path>
                    <path d="M66.7522704,49.2239509 C64.6702235,48.7342023 51.0507686,49.6234187 51.4925899,62.3971673 C51.4925899,62.3971673 58.4178262,51.8183076 66.7522704,49.2239509" id="Fill-41" fill="#6E8D45"></path>
                    <path d="M63.9181647,22.305255 C63.9181647,22.3115649 65.8938472,29.550524 62.1547297,35.692524 C60.9673951,37.6432667 60.3441286,38.3339626 59.4787749,39.2600678 C55.6559136,43.3493953 54.861309,45.0380327 55.4441474,45.6059275 C56.4365608,46.5732901 62.693771,40.6657287 63.9836197,36.2361497 C64.5062972,34.4407287 65.0333063,32.5681322 65.1752859,30.7033018 C65.4852346,26.6367871 63.9181647,22.305255 63.9181647,22.305255" id="Fill-43" fill="#9EC54D"></path>
                    <path d="M22.0205573,45.5793287 C22.0205573,45.5793287 33.4958793,44.1479427 41.7687188,50.5171006 C47.3271005,54.7962117 48.5298363,59.0384339 48.8393037,64.6669018 C48.6318691,65.0561766 41.2599986,49.3507322 22.0205573,45.5793287" id="Fill-45" fill="#83A44A"></path>
                    <path d="M35.6961303,76.6948152 C35.6961303,76.6948152 37.679032,75.8716105 40.2134885,77.8043942 C40.8126906,78.2611368 42.3056424,79.4401251 45.0475335,79.3464468 C47.0641253,79.2775228 48.650928,77.0777801 48.650928,77.0777801 C48.650928,77.0777801 46.142461,77.8228386 44.2741055,77.7864351 C42.2926476,77.7480901 40.9253117,76.9195462 40.2312961,76.6346281 C37.7868403,75.630862 36.9445883,76.066248 35.6961303,76.6948152" id="Fill-47" fill="#6E8D45"></path>
                    <path d="M64.670416,55.0214766 C64.670416,55.0214766 61.22729,56.187845 58.9931565,58.3298275 C56.7585417,60.4722953 56.1343127,62.3968275 56.1343127,62.3968275 C56.1343127,62.3968275 58.6018703,61.7774825 60.9385179,60.0636053 C63.2751655,58.3497281 64.670416,55.0214766 64.670416,55.0214766" id="Fill-49" fill="#9EC54D"></path>
                    <path d="M37.1745472,74.4129947 C37.1745472,74.4129947 43.0096688,66.6236146 51.2906901,73.5567842 C51.2906901,73.5567842 43.1227712,71.5371175 37.1745472,74.4129947" id="Fill-51" fill="#6E8D45"></path>
                    <path d="M42.7158913,75.7022614 C42.7158913,75.7022614 43.8584662,74.549969 46.952178,74.3728053 C48.8667371,74.2631094 50.5728989,74.7984836 50.5728989,74.7984836 C50.5728989,74.7984836 48.5962539,76.0036825 46.811161,76.2167643 C44.2800735,76.5181854 42.7158913,75.7022614 42.7158913,75.7022614" id="Fill-53" fill="#9EC54D"></path>
                    <path d="M17.8158911,46.7173994 C21.6026559,44.8593643 26.4511395,54.1063409 27.9027006,56.2823 C31.5782882,61.7928205 36.5235105,63.655224 42.8447318,64.6051129 C35.9801376,66.5427503 29.2296084,63.1145105 25.6671233,57.4525515 C23.5581244,54.100031 21.6647419,48.362838 17.8158911,46.7173994" id="Fill-55" fill="#ADCD64"></path>
                    <path d="M52.9453542,64.6375848 C55.0649415,64.5269181 57.149876,64.1638538 59.0230444,63.4003509 C59.9514467,63.0052515 60.8273888,62.5184152 61.5647202,61.8762573 C62.3136025,61.2360409 62.9845164,60.4701111 63.5938255,59.6493333 C64.8239947,58.0106901 65.8361409,56.1133392 67.0884492,54.3455848 C67.7030525,53.4534561 68.3903301,52.6035556 69.1228487,51.8026784 C69.8645117,51.0076257 70.6831806,50.2892632 71.5552724,49.6611813 L71.6212086,49.7339883 C70.9483697,50.5736959 70.2832312,51.3925322 69.7013555,52.2739825 C69.1088914,53.1457251 68.5669624,54.0446491 68.042841,54.9595906 C67.0003737,56.7928713 66.0570515,58.7178889 64.7469888,60.5186491 C64.0876258,61.4141754 63.3185294,62.2393216 62.4353681,62.968848 C61.5161102,63.6687661 60.4861564,64.1900643 59.4162558,64.5128421 C58.3482803,64.8467836 57.2495024,65.0035614 56.1603503,65.0419064 C55.0707169,65.0622924 53.9849338,64.9953099 52.9338033,64.7356316 L52.9453542,64.6375848 Z" id="Fill-57" fill="#6E8D45"></path>
                    <path d="M122.762011,56.94933 C121.051094,57.1250779 119.350135,57.2901555 117.659757,57.4451903 C115.968756,57.5989697 114.288335,57.7201103 112.618495,57.8086119 C112.822013,54.8560465 112.974495,51.9235665 113.076565,49.0136827 C113.178013,46.1044266 113.22967,43.1945428 113.22967,40.284659 C112.088851,36.0095902 110.611948,31.3472484 108.799584,26.2988887 C106.986597,21.2517844 104.736078,15.7740976 102.047405,9.86582838 C102.618126,9.9110207 103.186979,9.94365961 103.758322,9.9656281 C104.32842,9.98822426 104.898519,9.998267 105.469239,9.998267 C106.894485,9.998267 108.279898,9.92169111 109.624235,9.76728399 C110.968571,9.61287687 112.312907,9.35992537 113.657244,9.00654647 C114.471937,12.1806799 115.307168,15.2889078 116.162315,18.3306025 C117.018085,21.3722973 117.832778,24.413992 118.607016,27.4563145 C119.462163,24.7228063 120.25694,21.8022521 120.990101,18.6946518 C121.723263,15.5864239 122.435263,12.2465853 123.128592,8.6763914 C124.228334,8.85276702 125.236586,8.98520565 126.153349,9.07307962 C127.069489,9.16158126 127.873602,9.20551825 128.566931,9.20551825 C129.666673,9.20551825 131.378212,9.00654647 133.699682,8.60985825 C133.04743,10.0208632 131.83566,13.4266072 130.06375,18.8264628 C128.29184,24.226946 125.898796,31.7112977 122.883997,41.2770072 C122.842921,44.5835792 122.813046,47.5254742 122.792508,50.105203 C122.771347,52.6836763 122.762011,54.9652612 122.762011,56.94933" id="Fill-59" fill="#583B13"></path>
                    <path d="M132.311032,38.6892442 C131.223116,38.6892442 130.67978,41.0430113 130.67978,45.7492902 C130.67978,47.5620047 130.799276,48.9215406 131.038892,49.8266425 C131.277885,50.7329997 131.614591,51.1861783 132.049634,51.1861783 C132.550025,51.1861783 132.963284,50.6275509 133.289411,49.5090408 C133.615537,48.391786 133.7786,46.7378724 133.7786,44.5498105 C133.7786,40.6431848 133.289411,38.6892442 132.311032,38.6892442 M132.08262,57.469795 C130.081052,57.469795 128.483408,56.4284884 127.287197,54.3452476 C126.090987,52.2626345 125.492882,49.1864178 125.492882,45.1140869 C125.492882,40.5954818 126.11277,37.1658862 127.352547,34.8240448 C128.591702,32.4822035 130.331248,31.310969 132.571809,31.310969 C134.550348,31.310969 136.115629,32.4470539 137.269518,34.7179684 C138.421539,36.9895106 138.997861,40.3011039 138.997861,44.6552592 C138.997861,46.6794989 138.829197,48.4853091 138.49249,50.0745726 C138.155162,51.6625808 137.687756,53.0045419 137.08965,54.0985728 C136.491545,55.1926038 135.768342,56.0286618 134.920041,56.604864 C134.072362,57.1816939 133.126347,57.469795 132.08262,57.469795" id="Fill-61" fill="#583B13"></path>
                    <path d="M147.706983,50.3385711 C147.6852,49.9387445 147.663417,49.544567 147.642256,49.1560385 C147.61985,48.7681377 147.60927,48.3739602 147.60927,47.9735059 C147.60927,44.4673345 147.679599,41.608292 147.821501,39.3951233 C147.962158,37.1832099 148.033109,35.5826483 148.033109,34.5946938 C148.033109,34.2651664 148.02813,33.847765 148.016927,33.3412343 C148.005725,32.8353313 147.989543,32.2415543 147.96776,31.5586481 C148.554662,31.6057234 149.109823,31.6471497 149.631998,31.6816716 C150.153551,31.7174489 150.643363,31.7350237 151.099566,31.7350237 C151.512202,31.7350237 151.915503,31.7300023 152.306979,31.7174489 C152.698455,31.7055231 153.089308,31.6879483 153.480784,31.6640968 C153.263574,34.6775464 153.094287,37.4129376 152.975413,39.8721534 C152.855294,42.3313693 152.796168,44.5614852 152.796168,46.5612457 C152.796168,48.3501087 152.844713,50.1038221 152.942427,51.8211305 C153.04014,53.5396944 153.208805,55.2344067 153.44842,56.9052675 C152.62128,56.9052675 151.805965,56.9284913 151.001852,56.9755666 C150.197118,57.022642 149.403586,57.0816431 148.620634,57.1519423 L148.424585,55.45723 C147.728144,56.4935151 146.663255,57.0107162 145.228052,57.0107162 C142.074462,57.0107162 140.497979,54.2571226 140.497979,48.7505629 C140.497979,45.5500673 140.552126,42.9019224 140.661664,40.8073836 C140.769958,38.7134724 140.824105,37.1361346 140.824105,36.0766255 C140.824105,35.3943469 140.812902,34.7120683 140.791741,34.0297897 C140.769958,33.347511 140.736972,32.6652324 140.693406,31.9823261 C142.672568,31.8881754 144.66231,31.6415007 146.663255,31.2404187 C146.249996,34.9355192 145.973038,38.0776414 145.831136,40.6661575 C145.689856,43.2553013 145.619527,45.3033925 145.619527,46.8085481 C145.619527,49.1861667 146.151661,50.3743484 147.217794,50.3743484 C147.283144,50.3743484 147.353473,50.3686993 147.430025,50.3561459 C147.505955,50.3454755 147.576284,50.3385711 147.642256,50.3385711 L147.706983,50.3385711 Z" id="Fill-63" fill="#583B13"></path>
                    <path d="M165.452038,37.171598 C164.40831,37.0297443 163.364582,36.9242955 162.320232,36.8533687 C162.190155,40.1486426 162.096798,43.002036 162.042651,45.4148042 C161.988504,47.8275724 161.961742,49.8097581 161.961742,51.3626167 C161.961742,52.2338244 161.977924,53.1100534 162.010287,53.9925592 C162.042651,54.8750649 162.080616,55.7757731 162.124183,56.6934284 C161.25472,56.7637276 160.357251,56.8340268 159.433642,56.9049536 C158.509411,56.9758805 157.525432,57.0461797 156.481704,57.1164788 C156.502865,50.4098118 156.665928,43.6083664 156.970893,36.7127703 C156.469879,36.6889188 156.057242,36.671344 155.731116,36.6600459 C155.40499,36.6481202 155.144213,36.6418435 154.948164,36.6418435 L154.034513,36.6418435 L154.034513,35.0889849 C154.034513,34.924535 154.028912,34.5535813 154.018332,33.9767515 C154.007129,33.3999216 154.002772,32.6172156 154.002772,31.6292611 C155.111227,31.7472633 156.220305,31.8351372 157.329383,31.8941383 C158.43846,31.9531394 159.558118,31.9820123 160.689601,31.9820123 C161.363637,31.9820123 162.096798,31.9644375 162.891575,31.9292879 C163.684484,31.8941383 164.571373,31.8181901 165.549751,31.6995602 C165.506184,32.3121674 165.468219,32.8827205 165.435856,33.4118473 C165.40287,33.9416019 165.38731,34.4299301 165.38731,34.8774597 C165.38731,35.1360602 165.391667,35.4593109 165.40287,35.8478394 C165.41345,36.2363679 165.430254,36.6769931 165.452038,37.171598" id="Fill-65" fill="#583B13"></path>
                    <path d="M173.965359,44.8672866 C173.98652,43.7374784 174.003324,42.8493236 174.014527,42.2021946 C174.025108,41.5550655 174.030709,41.1138127 174.030709,40.8784359 C174.030709,39.3481735 173.998345,37.8304645 173.932373,36.3240535 C173.867646,34.8182703 173.780513,33.2999336 173.671597,31.7702988 L179.380048,31.4526972 C179.31532,34.3945922 179.25495,37.2894119 179.200803,40.1371562 C179.146656,42.9849006 179.119271,45.8207192 179.119271,48.644612 C179.119271,49.7034934 179.129852,50.9626018 179.152257,52.4213098 C179.173418,53.8806454 179.206404,55.5402081 179.249971,57.3993703 C177.466858,57.1633659 175.617773,57.0227675 173.704583,56.9756922 C173.747527,55.7755848 173.786114,54.5754774 173.819101,53.37537 C173.850842,52.174635 173.888807,50.9738999 173.932373,49.7737925 L171.975617,49.8447194 C171.866701,52.2926372 171.801351,54.7047777 171.779568,57.0817686 C171.410498,57.0585448 171.056365,57.04097 170.719658,57.0284166 C170.382329,57.0164908 170.061805,57.0108418 169.757462,57.0108418 C169.496063,57.0108418 169.094007,57.0227675 168.550671,57.0459914 C168.006713,57.0698429 167.321474,57.1043648 166.495579,57.1520678 C166.603873,53.3395928 166.674824,49.9683706 166.70781,47.0384013 C166.740173,44.1078044 166.756355,41.6084176 166.756355,39.5371025 C166.756355,38.642671 166.74453,37.5542891 166.723369,36.2713291 C166.701586,34.9889968 166.614453,33.5001607 166.462593,31.8054484 C167.266705,31.7119254 168.055258,31.6472752 168.827629,31.611498 C169.599378,31.5763484 170.366147,31.5587736 171.127316,31.5587736 L172.007981,31.5587736 C172.029764,32.6885818 172.045946,33.8001875 172.057148,34.8942185 C172.067729,35.9888771 172.07333,37.1011105 172.07333,38.2309187 C172.07333,38.9602727 172.040967,41.1728137 171.975617,44.8672866 L173.965359,44.8672866 Z" id="Fill-67" fill="#583B13"></path>
                    <path d="M207.900208,43.7897006 C206.718312,43.7897006 205.567535,43.8122968 204.447255,43.8556061 C203.326352,43.9007984 202.196113,43.9660762 201.055917,44.0545779 C200.933931,46.2143946 200.851777,48.3974351 200.811945,50.6011888 C200.770868,52.8055701 200.750952,55.0538884 200.750952,57.3461437 C197.329118,56.8170169 193.845668,56.4862342 190.301848,56.3544232 C190.749338,50.8434698 191.085422,45.4429866 191.3101,40.1529735 C191.532911,34.8623328 191.646184,29.6168844 191.646184,24.4141176 C191.646184,22.2982379 191.574611,20.0612176 191.432086,17.7024292 C191.288939,15.344896 191.096002,12.8204024 190.851408,10.1308312 C191.421506,10.1308312 191.920653,10.1421292 192.348849,10.1640977 C192.776423,10.1866939 193.152961,10.1967366 193.479087,10.1967366 C195.434599,10.1967366 197.440523,10.0875219 199.498105,9.86595391 C201.554442,9.64626898 203.662436,9.31548625 205.82271,8.87423337 C206.310654,11.6083692 206.555871,13.6357473 206.555871,14.9576229 C206.555871,15.7083177 206.433885,16.8757862 206.188668,18.462539 C205.373353,18.8165456 204.559283,19.0807952 203.74459,19.2565431 C202.929275,19.4329187 202.074127,19.5653574 201.177903,19.6532313 L201.177903,28.3816274 L201.177903,30.3656961 C201.177903,31.3800128 201.157365,32.7910177 201.117532,34.5980832 L208.877341,34.069584 L208.877341,35.3255541 C208.877341,36.5156188 208.785852,37.8054832 208.602872,39.1938919 C208.419271,40.5829283 208.184634,42.1150738 207.900208,43.7897006" id="Fill-69" fill="#583B13"></path>
                    <path d="M218.285518,50.3385711 C218.263735,49.9387445 218.241951,49.544567 218.220791,49.1560385 C218.198385,48.7681377 218.188427,48.3739602 218.188427,47.9735059 C218.188427,44.4673345 218.258133,41.608292 218.400035,39.3951233 C218.541315,37.1832099 218.611644,35.5826483 218.611644,34.5946938 C218.611644,34.2651664 218.606665,33.847765 218.595462,33.3412343 C218.584259,32.8353313 218.568078,32.2415543 218.546917,31.5586481 C219.133819,31.6057234 219.688358,31.6471497 220.210533,31.6816716 C220.732708,31.7174489 221.221897,31.7350237 221.6781,31.7350237 C222.090737,31.7350237 222.494038,31.7300023 222.885514,31.7174489 C223.276989,31.7055231 223.667843,31.6879483 224.059318,31.6640968 C223.842109,34.6775464 223.673444,37.4129376 223.553948,39.8721534 C223.433829,42.3313693 223.374703,44.5614852 223.374703,46.5612457 C223.374703,48.3501087 223.423248,50.1038221 223.521584,51.8211305 C223.618675,53.5396944 223.787339,55.2344067 224.027577,56.9052675 C223.199815,56.9052675 222.385122,56.9284913 221.580387,56.9755666 C220.775652,57.022642 219.98212,57.0816431 219.199169,57.1519423 L219.00312,55.45723 C218.307301,56.4935151 217.24179,57.0107162 215.807209,57.0107162 C212.652997,57.0107162 211.076514,54.2571226 211.076514,48.7505629 C211.076514,45.5500673 211.130661,42.9019224 211.240199,40.8073836 C211.348493,38.7134724 211.40264,37.1361346 211.40264,36.0766255 C211.40264,35.3943469 211.392059,34.7120683 211.370276,34.0297897 C211.348493,33.347511 211.316129,32.6652324 211.27194,31.9823261 C213.251102,31.8881754 215.240845,31.6415007 217.24179,31.2404187 C216.828531,34.9355192 216.551573,38.0776414 216.409671,40.6661575 C216.268391,43.2553013 216.198062,45.3033925 216.198062,46.8085481 C216.198062,49.1861667 216.730818,50.3743484 217.796951,50.3743484 C217.861679,50.3743484 217.932007,50.3686993 218.00856,50.3561459 C218.08449,50.3454755 218.155441,50.3385711 218.220791,50.3385711 L218.285518,50.3385711 Z" id="Fill-71" fill="#583B13"></path>
                    <path d="M236.558722,37.171598 C235.514372,37.0297443 234.471267,36.9242955 233.426916,36.8533687 C233.296839,40.1486426 233.203483,43.002036 233.149336,45.4148042 C233.095189,47.8275724 233.068427,49.8097581 233.068427,51.3626167 C233.068427,52.2338244 233.084608,53.1100534 233.116972,53.9925592 C233.149336,54.8750649 233.187301,55.7757731 233.230867,56.6934284 C232.361405,56.7637276 231.463936,56.8340268 230.539705,56.9049536 C229.616096,56.9758805 228.632116,57.0461797 227.588388,57.1164788 C227.609549,50.4098118 227.772612,43.6083664 228.077577,36.7127703 C227.576563,36.6889188 227.163927,36.671344 226.837801,36.6600459 C226.511052,36.6481202 226.250898,36.6418435 226.054849,36.6418435 L225.141198,36.6418435 L225.141198,35.0889849 C225.141198,34.924535 225.135597,34.5535813 225.125016,33.9767515 C225.113814,33.3999216 225.109457,32.6172156 225.109457,31.6292611 C226.217912,31.7472633 227.32699,31.8351372 228.436067,31.8941383 C229.545145,31.9531394 230.664803,31.9820123 231.796286,31.9820123 C232.470321,31.9820123 233.203483,31.9644375 233.998259,31.9292879 C234.791169,31.8941383 235.678057,31.8181901 236.656436,31.6995602 C236.612869,32.3121674 236.574904,32.8827205 236.54254,33.4118473 C236.509554,33.9416019 236.493373,34.4299301 236.493373,34.8774597 C236.493373,35.1360602 236.498352,35.4593109 236.509554,35.8478394 C236.520135,36.2363679 236.536939,36.6769931 236.558722,37.171598" id="Fill-73" fill="#583B13"></path>
                    <path d="M245.30668,50.3385711 C245.284897,49.9387445 245.263114,49.544567 245.241331,49.1560385 C245.218925,48.7681377 245.208967,48.3739602 245.208967,47.9735059 C245.208967,44.4673345 245.279296,41.608292 245.421198,39.3951233 C245.561855,37.1832099 245.632184,35.5826483 245.632184,34.5946938 C245.632184,34.2651664 245.627205,33.847765 245.616625,33.3412343 C245.6048,32.8353313 245.588618,32.2415543 245.567457,31.5586481 C246.154359,31.6057234 246.70952,31.6471497 247.231073,31.6816716 C247.753248,31.7174489 248.242437,31.7350237 248.698641,31.7350237 C249.111899,31.7350237 249.514578,31.7300023 249.906054,31.7174489 C250.29753,31.7055231 250.688383,31.6879483 251.079859,31.6640968 C250.862649,34.6775464 250.693984,37.4129376 250.574488,39.8721534 C250.454991,42.3313693 250.395243,44.5614852 250.395243,46.5612457 C250.395243,48.3501087 250.444411,50.1038221 250.542124,51.8211305 C250.639837,53.5396944 250.807879,55.2344067 251.048117,56.9052675 C250.220977,56.9052675 249.405662,56.9284913 248.600927,56.9755666 C247.796192,57.022642 247.003283,57.0816431 246.219709,57.1519423 L246.02366,55.45723 C245.327841,56.4935151 244.26233,57.0107162 242.827749,57.0107162 C239.673537,57.0107162 238.097676,54.2571226 238.097676,48.7505629 C238.097676,45.5500673 238.151823,42.9019224 238.260739,40.8073836 C238.369655,38.7134724 238.42318,37.1361346 238.42318,36.0766255 C238.42318,35.3943469 238.4126,34.7120683 238.391439,34.0297897 C238.369655,33.347511 238.336669,32.6652324 238.293103,31.9823261 C240.271643,31.8881754 242.261385,31.6415007 244.26233,31.2404187 C243.849071,34.9355192 243.572113,38.0776414 243.430833,40.6661575 C243.289553,43.2553013 243.219225,45.3033925 243.219225,46.8085481 C243.219225,49.1861667 243.751358,50.3743484 244.817491,50.3743484 C244.882219,50.3743484 244.95317,50.3686993 245.029722,50.3561459 C245.10503,50.3454755 245.175981,50.3385711 245.241331,50.3385711 L245.30668,50.3385711 Z" id="Fill-75" fill="#583B13"></path>
                    <path d="M258.125613,43.2785252 C258.734921,42.9257739 259.153159,42.4374457 259.382194,41.8135405 C259.609985,41.190263 259.72388,40.3724074 259.72388,39.3606014 C259.72388,37.4537362 259.354187,36.5003036 258.614802,36.5003036 C258.419376,36.5003036 258.212746,36.5712305 257.994914,36.7124565 C258.03848,37.9125639 258.065242,39.0486488 258.077068,40.1194559 C258.087026,41.190263 258.10383,42.2434953 258.125613,43.2785252 L258.125613,43.2785252 Z M257.506347,32.0877749 C258.006117,31.8530259 258.468543,31.6703735 258.89176,31.5410733 C259.316222,31.411773 259.745663,31.3464952 260.180705,31.3464952 C260.83358,31.3464952 261.425461,31.5291475 261.958839,31.8938245 C262.491595,32.2591291 262.947798,32.7706812 263.328693,33.429736 C263.708966,34.0881631 264.007707,34.8827949 264.22554,35.8123759 C264.44275,36.7425847 264.551666,37.7832636 264.551666,38.9362956 C264.551666,41.4080649 263.910616,43.2665994 262.627273,44.5144098 C263.475574,48.5151862 264.638799,52.4695149 266.118191,56.375513 C264.3774,57.1042392 262.54014,57.6816968 260.604545,58.1053749 L258.680774,46.7030994 L258.125613,47.161927 C258.125613,48.809564 258.055284,50.4220514 257.913382,51.9981338 C257.772102,53.574844 257.581655,55.1521817 257.342662,56.7288919 C255.516605,56.799191 253.689303,57.0464935 251.862623,57.4695439 C252.231694,55.092553 252.509897,52.7394135 252.69412,50.409498 C252.878967,48.0795824 252.971701,45.726443 252.971701,43.3488243 C252.971701,41.512886 252.923156,39.6957778 252.82482,37.8949891 C252.727106,36.094828 252.569022,34.2890179 252.352435,32.4763034 C254.047793,32.1003283 255.657262,31.4877212 257.179599,30.6403651 L257.506347,32.0877749 Z" id="Fill-77" fill="#583B13"></path>
                    <path d="M276.099205,56.7636021 C274.924777,56.9525311 273.864868,57.0925018 272.918853,57.1872802 C271.972839,57.2808032 271.118936,57.3285062 270.357768,57.3285062 C269.792026,57.3285062 269.18832,57.2990056 268.54727,57.2400045 C267.906221,57.1816311 267.204801,57.1044276 266.443633,57.0109045 C266.747975,55.011144 266.976388,53.039001 267.128871,51.0982416 C267.280731,49.1562268 267.367864,47.208563 267.389647,45.2552502 L265.759017,45.0788745 C266.475996,43.7375411 267.019332,42.3955801 267.389647,41.0548743 C267.346081,39.5246119 267.27513,38.0069029 267.177416,36.5004919 C267.079703,34.9947086 266.943402,33.4889254 266.770381,31.9825144 C267.748759,31.8406607 268.672368,31.7295629 269.542453,31.6467103 C270.411915,31.5644854 271.249635,31.5230591 272.05437,31.5230591 C272.663056,31.5230591 273.26614,31.5406339 273.864868,31.5764112 C274.462351,31.6115607 275.066057,31.652987 275.674743,31.6994347 C275.783659,32.1708158 275.865191,32.6064196 275.91996,33.0056185 C275.974107,33.4060728 276.001491,33.7707498 276.001491,34.1002771 C276.001491,34.8302588 275.838428,35.688913 275.512302,36.6768675 C274.945938,36.6542714 274.397623,36.6366966 273.864868,36.6241431 C273.33149,36.6128451 272.815538,36.5946426 272.315147,36.5714188 C272.380496,37.6780031 272.41286,38.8423333 272.41286,40.0662921 L276.425331,39.9602157 C276.533625,40.5728228 276.626359,41.1019497 276.702911,41.5488516 C276.778841,41.9963812 276.816806,42.3849096 276.816806,42.7138094 C276.816806,43.0201129 276.795023,43.3552894 276.752079,43.7199663 C276.70789,44.085271 276.664324,44.4907466 276.62138,44.9376485 C275.251526,45.1265776 273.88105,45.232654 272.510573,45.2552502 C272.445846,47.5387181 272.348133,49.633257 272.217433,51.5394945 L273.098098,51.5394945 C273.772133,51.5394945 274.440567,51.5275687 275.104022,51.5037172 C275.767477,51.4804934 276.425331,51.4453438 277.077583,51.3976408 C277.0558,52.3397753 276.968667,53.2511539 276.816806,54.1342873 C276.664324,55.0161654 276.425331,55.8930221 276.099205,56.7636021" id="Fill-79" fill="#583B13"></path>
                    <g id="Group-83" transform="translate(278.258296, 31.138171)">
                        <mask id="mask-5" fill="white">
                            <use xlink:href="#path-4"></use>
                        </mask>
                        <g id="Clip-82"></g>
                        <path d="M1.72834366,26.2960349 C1.66361635,25.3080804 1.5434974,24.3433497 1.36985394,23.4018429 C1.19558811,22.4609637 0.956594961,21.5075311 0.652252127,20.5421728 L1.14144122,20.5421728 C3.75107211,20.5421728 5.05619874,19.5071429 5.05619874,17.4358279 C5.05619874,16.8941476 4.90869516,16.3185731 4.61555513,15.705966 C4.32179272,15.0939866 3.91413514,14.4117079 3.39258239,13.6585025 C3.04405072,13.1413014 2.70672185,12.6404197 2.38121817,12.1583682 C2.05446972,11.6763167 1.76132969,11.1697861 1.50055332,10.6406592 C1.23915457,10.1109047 1.02692367,9.54537292 0.863860642,8.94531923 C0.701419988,8.34526554 0.619888472,7.66926363 0.619888472,6.91605816 C0.619888472,5.92747598 0.793531929,5.01609736 1.14144122,4.18003929 C1.48872814,3.34523656 1.98351863,2.62655301 2.62519034,2.02649932 C3.26686204,1.42644563 4.03300934,0.955692207 4.92549936,0.614866732 C5.81674464,0.273413586 6.80632563,0.102687012 7.89361997,0.102687012 L8.43197693,0.102687012 C8.63860642,0.102687012 8.88320096,0.114612766 9.16576057,0.137836601 C9.53545309,1.03289577 9.86157915,1.92042288 10.1441388,2.80292862 C10.4273207,3.68606204 10.6663139,4.5855149 10.862363,5.50379791 C10.0576282,5.31549654 9.40537609,5.22134585 8.90498419,5.22134585 C8.03489977,5.22134585 7.36646582,5.42157297 6.89905995,5.82139955 C6.43103171,6.22185379 6.19763996,6.76290638 6.19763996,7.44581268 C6.19763996,8.05716445 6.37688482,8.62269622 6.73599692,9.13989731 C7.09448664,9.65772607 7.54571068,10.293557 8.08966903,11.0461348 C9.00269754,12.3171691 9.71469795,13.5116274 10.2256703,14.6288822 C10.737265,15.7467646 10.9930623,16.9657021 10.9930623,18.2825564 C10.9930623,19.4600676 10.7970133,20.5365237 10.4055375,21.5131802 C10.0140618,22.4904643 9.44832017,23.330916 8.70955751,24.0364185 C7.96955008,24.7425486 7.06710201,25.2961546 6.0015909,25.6959812 C4.93607979,26.0964355 3.72928888,26.2960349 2.38121817,26.2960349 L1.72834366,26.2960349 Z" id="Fill-81" fill="#583B13" mask="url(#mask-5)"></path>
                    </g>
                </g>
            </g>
        </g>
    </g>
</svg>